<svg version="1.1"
	 xmlns="http://www.w3.org/2000/svg" xmlns:xlink="http://www.w3.org/1999/xlink" xmlns:a="http://ns.adobe.com/AdobeSVGViewerExtensions/3.0/"
	 x="0px" y="0px" width="439.737px" height="88.066px" viewBox="0 0 439.737 88.066" enable-background="new 0 0 439.737 88.066"
	 xml:space="preserve">
<defs>
</defs>
<g>
	<g>
		<path fill="#FFFFFF" d="M119.279,31.055c-1.419-3.603-3.589-6.702-6.062-9.273c-2.459-2.592-5.463-4.552-8.772-5.929
			c-3.33-1.384-7.001-2.065-10.886-2.065c-3.898,0-7.445,0.632-10.606,1.883c-3.154,1.278-6.018,2.88-8.603,4.826
			c-1.11,0.836-2.336,1.898-3.38,2.847l6.933,9.125l0.049-0.044c2.002-1.77,4.138-3.818,6.449-5.033
			c2.283-1.201,4.805-2.359,7.551-2.359h0.169c4.819,0,8.683,2.225,11.605,5.541c2.929,3.33,4.383,8.016,4.383,13.516
			c0,1.96-0.351,4.076-1.033,6.064c-0.674,2.023-1.665,3.928-2.929,5.586c-1.244,1.651-2.866,3.076-4.805,4.151
			c-1.953,1.096-4.13,1.663-6.533,1.663c-2.171,0-4.215-0.308-6.091-0.94c-1.897-0.632-3.793-1.64-5.683-3.01
			c-1.883-1.37-3.885-3.201-6.013-5.498c-2.121-2.283-5.114-6.215-6.702-8.765c-1.602-2.529-6.912-10.031-6.954-9.968
			c-4.594-5.943-9.378-10.705-14.351-14.267c-4.995-3.54-10.811-5.318-17.45-5.318c-4.236,0-8.17,0.745-11.78,2.241
			c-3.604,1.475-6.723,3.575-9.357,6.259c-2.635,2.697-4.7,5.901-6.196,9.631C0.745,35.649,0,39.738,0,44.206
			c0,4.467,0.78,8.535,2.318,12.202c1.559,3.667,3.611,6.849,6.196,9.547c2.571,2.697,5.55,4.742,8.936,6.175
			c3.372,1.433,6.898,2.15,10.579,2.15c3.541,0,6.807-0.506,9.799-1.539c2.958-1.033,5.774-2.444,8.409-4.215
			c1.545-1.038,3.677-2.887,5.195-4.252l-7.092-9.33c-0.46,0.427-0.948,0.869-1.454,1.296c-1.897,1.602-3.92,2.633-6.104,3.603
			c-2.178,0.976-4.468,1.192-6.87,1.192h-0.344c-4.805,0-8.788-1.395-11.949-4.725c-3.14-3.309-4.721-7.25-4.721-12.069
			c0-5.269,1.412-9.564,4.215-12.984c2.803-3.449,6.786-5.122,11.949-5.122c2.845,0,5.402,0.521,7.636,1.554
			c2.234,1.033,4.334,2.412,6.273,4.14c1.946,1.721,3.772,3.712,5.5,6.023c1.714,2.283,5.332,7.049,5.332,7.049l6.87,9.273
			c5.964,7.798,11.485,13.087,16.585,15.912c5.1,2.803,10.179,4.194,15.216,4.194c3.667,0,7.207-0.681,10.649-2.065
			c3.449-1.37,6.484-3.393,9.118-6.091c2.634-2.697,5.183-5.964,6.785-9.799c1.602-3.835,2.837-8.156,2.837-12.982v-0.169
			C121.863,38.705,120.712,34.659,119.279,31.055z"/>
	</g>
</g>
<g>
	<path fill="#FFFFFF" d="M192.12,88.066c-3.907,0-7.354-0.41-10.342-1.23s-5.489-1.963-7.5-3.428
		c-2.013-1.465-3.526-3.242-4.541-5.332c-1.017-2.089-1.523-4.385-1.523-6.885c0-2.422,0.751-4.374,2.256-5.859
		c1.503-1.484,3.642-2.227,6.416-2.227c0.117,2.5,0.498,4.902,1.143,7.207c0.645,2.306,1.611,4.336,2.9,6.094
		s2.93,3.164,4.922,4.219s4.395,1.582,7.207,1.582c5.391,0,9.599-1.298,12.627-3.896c3.026-2.598,4.541-6.337,4.541-11.221
		c0-2.188-0.313-4.121-0.938-5.801c-0.626-1.679-1.661-3.231-3.105-4.658c-1.446-1.426-3.351-2.792-5.713-4.102
		c-2.364-1.309-5.303-2.686-8.818-4.131c-3.712-1.523-6.954-3.154-9.727-4.893c-2.774-1.737-5.079-3.671-6.914-5.801
		c-1.837-2.129-3.204-4.502-4.102-7.119c-0.899-2.616-1.348-5.566-1.348-8.848c0-3.437,0.653-6.504,1.963-9.199
		c1.308-2.695,3.135-4.971,5.479-6.826c2.344-1.854,5.116-3.271,8.32-4.248C188.525,0.489,192.022,0,195.812,0
		c3.593,0,6.776,0.372,9.551,1.113c2.772,0.742,5.116,1.738,7.031,2.988c1.913,1.251,3.369,2.687,4.365,4.307
		c0.996,1.621,1.494,3.311,1.494,5.068c0,2.578-0.85,4.521-2.549,5.83c-1.699,1.31-3.995,1.963-6.885,1.963
		c0-1.875-0.226-3.721-0.674-5.537c-0.45-1.816-1.201-3.437-2.256-4.863c-1.055-1.426-2.442-2.587-4.16-3.486
		c-1.72-0.898-3.849-1.348-6.387-1.348c-2.306,0-4.365,0.322-6.182,0.967s-3.351,1.562-4.6,2.754
		c-1.251,1.192-2.208,2.628-2.871,4.307c-0.665,1.68-0.996,3.555-0.996,5.625c0,2.383,0.312,4.482,0.938,6.299
		c0.624,1.816,1.67,3.457,3.135,4.922s3.388,2.852,5.771,4.16c2.382,1.31,5.312,2.666,8.789,4.072
		c3.516,1.445,6.65,2.969,9.404,4.57c2.754,1.603,5.087,3.39,7.002,5.361c1.913,1.973,3.378,4.181,4.395,6.621
		c1.015,2.441,1.523,5.206,1.523,8.291c0,3.789-0.694,7.178-2.08,10.166c-1.388,2.988-3.369,5.518-5.947,7.588
		c-2.578,2.071-5.684,3.643-9.316,4.717S196.611,88.066,192.12,88.066z"/>
	<path fill="#FFFFFF" d="M268.058,73.242c0,1.875,0.264,3.379,0.791,4.512c0.527,1.134,1.23,2.002,2.109,2.607
		c0.879,0.606,1.923,1.006,3.135,1.201c1.21,0.196,2.479,0.293,3.809,0.293h2.754v5.039h-37.324v-5.039h2.754
		c1.327,0,2.587-0.088,3.779-0.264c1.19-0.176,2.235-0.536,3.135-1.084c0.897-0.547,1.611-1.356,2.139-2.432
		c0.527-1.074,0.791-2.49,0.791-4.248V7.207h-11.484c-1.758,0-3.233,0.264-4.424,0.791c-1.192,0.527-2.168,1.24-2.93,2.139
		c-0.762,0.899-1.329,1.943-1.699,3.135c-0.372,1.192-0.636,2.452-0.791,3.779l-0.645,5.156h-6.211l0.586-20.977h67.559
		l0.586,20.977h-6.211l-0.586-5.156c-0.157-1.327-0.431-2.587-0.82-3.779c-0.392-1.191-0.958-2.235-1.699-3.135
		c-0.743-0.898-1.72-1.611-2.93-2.139c-1.212-0.527-2.716-0.791-4.512-0.791h-11.66V73.242z"/>
	<path fill="#FFFFFF" d="M341.827,0c4.102,0,7.665,0.343,10.693,1.025c3.026,0.684,5.546,1.632,7.559,2.842
		c2.011,1.211,3.516,2.637,4.512,4.277s1.494,3.419,1.494,5.332c0,1.289-0.264,2.452-0.791,3.486
		c-0.527,1.035-1.26,1.914-2.197,2.637c-0.938,0.724-2.042,1.28-3.311,1.67c-1.271,0.391-2.647,0.586-4.131,0.586
		c0-1.875-0.245-3.729-0.732-5.566c-0.489-1.836-1.289-3.486-2.402-4.951s-2.56-2.656-4.336-3.574
		c-1.778-0.917-3.976-1.377-6.592-1.377c-4.532,0-8.379,0.83-11.543,2.49c-3.164,1.661-5.742,4.082-7.734,7.266
		c-1.992,3.185-3.438,7.11-4.336,11.777c-0.899,4.668-1.348,10.011-1.348,16.025c0,5.353,0.469,10.254,1.406,14.707
		s2.421,8.271,4.453,11.455c2.03,3.185,4.618,5.654,7.764,7.412c3.144,1.758,6.923,2.637,11.338,2.637
		c2.93,0,5.517-0.283,7.764-0.85c2.245-0.565,4.228-1.318,5.947-2.256c1.718-0.938,3.231-2.021,4.541-3.252
		c1.308-1.23,2.47-2.51,3.486-3.838c0.663,0.431,1.21,1.017,1.641,1.758c0.429,0.742,0.645,1.72,0.645,2.93
		c0,1.523-0.519,3.076-1.553,4.658c-1.036,1.582-2.607,3.018-4.717,4.307s-4.786,2.354-8.027,3.193
		c-3.243,0.84-7.09,1.26-11.543,1.26c-5.977,0-11.231-1.055-15.762-3.164c-4.532-2.109-8.331-5.098-11.396-8.965
		c-3.067-3.867-5.382-8.516-6.943-13.945c-1.563-5.429-2.344-11.445-2.344-18.047c0-6.483,0.82-12.422,2.461-17.812
		s4.072-10.02,7.295-13.887s7.236-6.875,12.041-9.023C329.933,1.075,335.499,0,341.827,0z"/>
	<path fill="#FFFFFF" d="M415.48,0c4.102,0,7.665,0.343,10.693,1.025c3.026,0.684,5.546,1.632,7.559,2.842
		c2.011,1.211,3.516,2.637,4.512,4.277s1.494,3.419,1.494,5.332c0,1.289-0.264,2.452-0.791,3.486
		c-0.527,1.035-1.26,1.914-2.197,2.637c-0.938,0.724-2.042,1.28-3.311,1.67c-1.271,0.391-2.647,0.586-4.131,0.586
		c0-1.875-0.245-3.729-0.732-5.566c-0.489-1.836-1.289-3.486-2.402-4.951s-2.56-2.656-4.336-3.574
		c-1.778-0.917-3.976-1.377-6.592-1.377c-4.532,0-8.379,0.83-11.543,2.49c-3.164,1.661-5.742,4.082-7.734,7.266
		c-1.992,3.185-3.438,7.11-4.336,11.777c-0.899,4.668-1.348,10.011-1.348,16.025c0,5.353,0.469,10.254,1.406,14.707
		s2.421,8.271,4.453,11.455c2.03,3.185,4.618,5.654,7.764,7.412c3.144,1.758,6.923,2.637,11.338,2.637
		c2.93,0,5.517-0.283,7.764-0.85c2.245-0.565,4.228-1.318,5.947-2.256c1.718-0.938,3.231-2.021,4.541-3.252
		c1.308-1.23,2.47-2.51,3.486-3.838c0.663,0.431,1.21,1.017,1.641,1.758c0.429,0.742,0.645,1.72,0.645,2.93
		c0,1.523-0.519,3.076-1.553,4.658c-1.036,1.582-2.607,3.018-4.717,4.307s-4.786,2.354-8.027,3.193
		c-3.243,0.84-7.09,1.26-11.543,1.26c-5.977,0-11.231-1.055-15.762-3.164c-4.532-2.109-8.331-5.098-11.396-8.965
		c-3.067-3.867-5.382-8.516-6.943-13.945c-1.563-5.429-2.344-11.445-2.344-18.047c0-6.483,0.82-12.422,2.461-17.812
		s4.072-10.02,7.295-13.887s7.236-6.875,12.041-9.023C403.585,1.075,409.151,0,415.48,0z"/>
</g>
</svg>