<svg xmlns="http://www.w3.org/2000/svg" width="622" height="133.66" viewBox="0 0 622 133.66"><g fill="#fff"><path d="M164.294 26.508c0 2.453.648 4.426 1.945 5.918 1.297 1.492 3.078 2.238 5.344 2.238 2.234 0 4.012-.555 5.332-1.664 1.32-1.109 1.98-2.617 1.98-4.524 0-1.516-.379-2.797-1.137-3.844-.758-1.047-2.395-2.281-4.91-3.703-2.562-1.484-4.34-3.008-5.332-4.57-.992-1.563-1.488-3.328-1.488-5.297 0-2.766 1.047-5.004 3.141-6.715 2.094-1.711 4.93-2.566 8.508-2.566 2.781 0 5 .484 6.656 1.453 1.656.969 2.484 2.211 2.484 3.727 0 2.219-1.414 3.328-4.242 3.328 0-1.875-.445-3.359-1.336-4.453-.891-1.094-2.203-1.641-3.938-1.641-1.906 0-3.469.547-4.688 1.641-1.219 1.094-1.828 2.563-1.828 4.406 0 1.359.324 2.535.973 3.527.648.992 2.301 2.262 4.957 3.809 2.516 1.469 4.332 2.93 5.449 4.383 1.117 1.453 1.676 3.109 1.676 4.969 0 3.172-1.109 5.644-3.328 7.418s-5.305 2.66-9.258 2.66c-3.266 0-5.859-.645-7.781-1.934-1.922-1.289-2.883-2.926-2.883-4.91 0-1.109.348-1.996 1.043-2.66.696-.664 1.583-.996 2.661-.996zM202.731 10.336c2.828 0 5.055.852 6.68 2.555s2.438 4.164 2.438 7.383c0 4.266-1.305 8.121-3.914 11.566-2.609 3.445-6.039 5.168-10.289 5.168-2.891 0-5.148-.875-6.773-2.625s-2.438-4.18-2.438-7.289c0-4.312 1.316-8.184 3.949-11.613 2.633-3.43 6.082-5.145 10.347-5.145zm-4.546 24.328c2.641 0 4.746-1.566 6.316-4.699 1.57-3.133 2.355-6.605 2.355-10.418 0-4.453-1.562-6.68-4.687-6.68-2.609 0-4.719 1.57-6.328 4.711s-2.414 6.633-2.414 10.477c0 4.406 1.586 6.609 4.758 6.609zM215.179 10.805h8.93l-3.164 14.367c-.641 2.906-.961 4.836-.961 5.789 0 1.953.781 2.93 2.344 2.93 1.641 0 3.41-1.184 5.309-3.551 1.898-2.367 3.137-4.895 3.715-7.582l2.508-11.953h4.641l-3.305 15.422c-.484 2.266-.727 4.039-.727 5.32 0 1.625.531 2.437 1.594 2.437.906 0 1.93-.351 3.07-1.055l.867 1.406c-2.031 1.781-4.062 2.672-6.094 2.672-1.203 0-2.176-.43-2.918-1.289s-1.113-1.945-1.113-3.258c0-.828.078-1.773.234-2.836h-.375c-1.734 2.859-3.285 4.797-4.652 5.812-1.367 1.016-2.91 1.523-4.629 1.523-3.422 0-5.133-1.773-5.133-5.32 0-1.016.289-2.773.867-5.273l1.875-8.414c.281-1.266.422-2.219.422-2.859 0-1.516-1.117-2.273-3.352-2.273h-.375l.422-2.015zM255.21 32.93l.82 1.781c-2.156 1.531-4.313 2.297-6.469 2.297-3.484 0-5.226-1.867-5.226-5.602 0-1.203.156-2.547.469-4.031l2.93-13.828h-3.656l.445-1.922c3.125 0 5.57-2.242 7.336-6.727h2.203l-1.242 5.906h5.813l-.586 2.742h-5.813l-2.906 13.688c-.391 1.844-.586 3.219-.586 4.125 0 1.75.852 2.625 2.555 2.625 1.296 0 2.6-.351 3.913-1.054zM268.523 16.851c2.656-4.312 5.617-6.469 8.883-6.469 3.422 0 5.133 1.773 5.133 5.32 0 1.016-.289 2.773-.867 5.273l-1.242 5.672c-.422 1.922-.633 3.602-.633 5.039 0 1.531.562 2.297 1.688 2.297.922 0 1.945-.367 3.07-1.101l.867 1.406c-2.094 1.812-4.047 2.719-5.859 2.719-1.328 0-2.387-.43-3.176-1.289-.789-.859-1.184-2.023-1.184-3.492 0-1.469.305-3.633.914-6.492l1.102-4.969c.469-1.938.703-3.43.703-4.477 0-1.891-.734-2.836-2.203-2.836-1.781 0-3.613 1.215-5.496 3.645-1.883 2.43-3.074 4.816-3.574 7.16l-2.578 12.281h-4.477l6.234-29.672c.297-1.406.445-2.25.445-2.531 0-1.5-1.125-2.25-3.375-2.25h-.375l.422-2.016h8.836l-1.875 8.812c-.562 2.625-1.195 5.281-1.898 7.969h.515zM304.524 30.539c.328.203.492.602.492 1.195 0 1.281-.754 2.481-2.262 3.598s-3.527 1.676-6.059 1.676c-2.797 0-5.055-.883-6.773-2.649-1.719-1.766-2.578-4.187-2.578-7.266 0-4.188 1.352-8.027 4.055-11.52s6.117-5.238 10.242-5.238c2.031 0 3.605.484 4.723 1.453 1.117.969 1.676 2.32 1.676 4.055 0 2.594-1.348 4.852-4.043 6.774-2.695 1.922-5.988 2.883-9.879 2.883h-.82c-.281 0-.57-.016-.867-.047-.062.438-.094 1.109-.094 2.016 0 4.344 1.758 6.516 5.273 6.516 2.735-.001 5.039-1.149 6.914-3.446zm-11.648-7.289h.469c2.828 0 5.16-.688 6.996-2.062 1.836-1.375 2.754-3.156 2.754-5.344 0-2.141-.93-3.211-2.789-3.211-1.547 0-2.992.973-4.336 2.918-1.344 1.945-2.375 4.511-3.094 7.699zM327.681 17.297c0-2.531-.641-3.797-1.922-3.797-1.484 0-3.059 1.461-4.723 4.383-1.664 2.922-2.895 6.227-3.691 9.914l-1.805 8.742h-4.477l4.031-19.289c.188-.891.281-1.609.281-2.156 0-1.516-1.274-2.273-3.82-2.273h-.398l.445-2.016h8.484l-1.008 6.914h.492c1.281-2.859 2.547-4.805 3.797-5.836 1.25-1.031 2.703-1.547 4.359-1.547 2.625 0 3.938 1.102 3.938 3.305.001 2.437-1.327 3.656-3.983 3.656zM337.993 36.539h-4.477l4.031-19.289c.188-.891.281-1.609.281-2.156 0-1.516-1.117-2.273-3.352-2.273h-.375l.422-2.016h8.883l-1.289 6.047h.469c2.594-4.312 5.508-6.469 8.742-6.469 3.422 0 5.133 1.773 5.133 5.32 0 1.016-.289 2.773-.867 5.273l-1.242 5.672c-.422 1.922-.633 3.602-.633 5.039 0 1.531.562 2.297 1.688 2.297.922 0 1.945-.367 3.07-1.101l.867 1.406c-2.094 1.812-4.047 2.719-5.859 2.719-1.328 0-2.387-.43-3.176-1.289-.789-.859-1.184-2.023-1.184-3.492 0-1.469.305-3.633.914-6.492l1.102-4.969c.469-1.938.703-3.43.703-4.477 0-1.891-.734-2.836-2.203-2.836-1.781 0-3.605 1.203-5.473 3.609-1.867 2.406-3.066 4.805-3.598 7.195l-2.577 12.282zM388.032 31.266c-.125.594-.188 1.039-.188 1.336 0 1.281 1.156 1.922 3.469 1.922h1.102l-.445 2.016h-14.93l.445-2.016h1.102c1.609 0 2.727-.277 3.352-.832.625-.555 1.047-1.348 1.266-2.379l5.648-26.649h-4.594c-2.281 0-3.883 1.312-4.805 3.937l-.68 2.062h-2.484l2.016-8.391h27.023l-1.547 8.391h-2.484c.156-1.25.234-2.226.234-2.93 0-2.047-1.055-3.07-3.164-3.07h-4.664l-5.672 26.603zM405.024 12.82l.422-2.016h8.602l-3.258 15.422c-.484 2.297-.727 4.07-.727 5.32 0 1.625.531 2.437 1.594 2.437.922 0 2.07-.414 3.445-1.242l.867 1.406c-2.219 1.906-4.383 2.859-6.492 2.859-1.187 0-2.148-.43-2.883-1.289-.734-.859-1.102-1.945-1.102-3.258 0-1.438.359-3.953 1.078-7.547l1.852-8.812c.109-.516.164-.938.164-1.266 0-1.344-.977-2.016-2.93-2.016h-.632zm7.782-6.82c-1.797 0-2.695-.875-2.695-2.625 0-1.016.262-1.832.785-2.449.523-.617 1.222-.926 2.097-.926 1.797 0 2.695.883 2.695 2.648 0 1.094-.27 1.926-.809 2.496-.538.571-1.23.856-2.073.856zM434.932 30.539c.328.203.492.602.492 1.195 0 1.281-.754 2.481-2.262 3.598s-3.527 1.676-6.059 1.676c-2.797 0-5.055-.883-6.773-2.649-1.719-1.766-2.578-4.187-2.578-7.266 0-4.188 1.351-8.027 4.055-11.52 2.703-3.492 6.117-5.238 10.242-5.238 2.031 0 3.605.484 4.723 1.453 1.117.969 1.676 2.32 1.676 4.055 0 2.594-1.348 4.852-4.043 6.774-2.695 1.922-5.988 2.883-9.879 2.883h-.82c-.281 0-.57-.016-.867-.047-.062.438-.094 1.109-.094 2.016 0 4.344 1.758 6.516 5.273 6.516 2.734-.001 5.039-1.149 6.914-3.446zm-11.649-7.289h.469c2.828 0 5.16-.688 6.996-2.062 1.836-1.375 2.754-3.156 2.754-5.344 0-2.141-.93-3.211-2.789-3.211-1.547 0-2.992.973-4.336 2.918-1.344 1.945-2.375 4.511-3.094 7.699zM458.088 17.297c0-2.531-.641-3.797-1.922-3.797-1.484 0-3.059 1.461-4.723 4.383-1.664 2.922-2.895 6.227-3.691 9.914l-1.805 8.742h-4.477l4.031-19.289c.187-.891.281-1.609.281-2.156 0-1.516-1.273-2.273-3.82-2.273h-.398l.445-2.016h8.484l-1.008 6.914h.492c1.281-2.859 2.547-4.805 3.797-5.836 1.25-1.031 2.703-1.547 4.359-1.547 2.625 0 3.938 1.102 3.938 3.305.001 2.437-1.327 3.656-3.983 3.656z"/></g><g fill="#fff"><path d="M25.118 89.627c2.051 0 3.833.171 5.347.513 1.513.342 2.773.815 3.779 1.421 1.006.605 1.758 1.318 2.256 2.139.498.82.747 1.709.747 2.666 0 .645-.132 1.226-.396 1.743-.264.518-.63.957-1.099 1.318-.469.361-1.021.64-1.655.835-.635.195-1.323.293-2.065.293 0-.938-.122-1.865-.366-2.783-.245-.918-.645-1.743-1.201-2.476-.557-.732-1.279-1.328-2.168-1.787-.889-.459-1.988-.688-3.296-.688-2.266 0-4.19.415-5.772 1.245-1.582.83-2.871 2.041-3.867 3.633s-1.719 3.555-2.168 5.889c-.45 2.334-.674 5.005-.674 8.013 0 2.676.234 5.127.703 7.354.469 2.227 1.211 4.136 2.227 5.728 1.015 1.592 2.31 2.827 3.882 3.706s3.461 1.318 5.669 1.318c1.465 0 2.758-.142 3.882-.425 1.123-.283 2.114-.659 2.974-1.128.859-.469 1.616-1.011 2.271-1.626.654-.615 1.235-1.255 1.743-1.919.332.215.605.508.82.879.215.371.322.859.322 1.465 0 .762-.259 1.538-.776 2.329-.518.791-1.304 1.509-2.358 2.153-1.055.645-2.392 1.177-4.014 1.597-1.622.42-3.545.63-5.771.63-2.988 0-5.615-.527-7.881-1.582-2.266-1.055-4.165-2.549-5.698-4.482-1.534-1.934-2.691-4.258-3.472-6.973-.782-2.717-1.173-5.725-1.173-9.025 0-3.242.41-6.211 1.231-8.906.82-2.695 2.036-5.01 3.647-6.943 1.611-1.934 3.618-3.438 6.021-4.512 2.402-1.075 5.185-1.612 8.349-1.612zM50.197 118.748l-2.285 6.299c-.176.469-.312.933-.41 1.392-.098.459-.147.854-.147 1.187 0 1.016.327 1.758.981 2.227.654.469 1.655.703 3.003.703h1.377v2.52h-14.648v-2.52h1.142c.586 0 1.084-.064 1.494-.191.41-.127.781-.366 1.113-.718.332-.352.649-.83.952-1.436.303-.606.64-1.387 1.011-2.344l13.301-35.625h4.687l13.565 37.119c.234.625.473 1.143.718 1.553.244.41.532.737.864.981.332.244.713.415 1.143.513.429.098.938.146 1.523.146h.791v2.52h-16.493v-2.52h1.377c2.402 0 3.604-.957 3.604-2.871 0-.332-.044-.674-.132-1.025-.088-.352-.21-.752-.366-1.201l-2.402-6.709h-15.763zm10.957-13.506c-.625-1.777-1.197-3.442-1.714-4.995-.517-1.553-.942-3.052-1.274-4.497-.137.723-.298 1.421-.483 2.095-.186.674-.386 1.362-.601 2.065-.215.703-.459 1.44-.732 2.212-.274.771-.586 1.626-.938 2.563l-4.072 11.045h13.535l-3.721-10.488zM112.425 125.75c1.016 1.602 2.002 2.803 2.959 3.604.957.801 2.07 1.201 3.34 1.201h.176v2.52h-.85c-1.875 0-3.413-.068-4.614-.205-1.201-.137-2.222-.4-3.062-.791-.84-.391-1.558-.938-2.153-1.641-.596-.703-1.235-1.621-1.919-2.754l-8.115-13.506h-4.98v12.363c0 .879.132 1.587.396 2.124.264.537.62.942 1.069 1.216.449.273.971.454 1.567.542.596.088 1.226.132 1.89.132h.791v2.52h-17.462v-2.52h.762c.664 0 1.294-.044 1.89-.132.596-.088 1.118-.269 1.567-.542.449-.273.806-.679 1.069-1.216.264-.537.396-1.245.396-2.124v-29.707c0-.879-.132-1.587-.396-2.124-.264-.537-.62-.952-1.069-1.245-.45-.293-.972-.483-1.567-.571-.596-.088-1.226-.132-1.89-.132h-.762v-2.52h16.143c5.195 0 9.062.962 11.601 2.886 2.539 1.924 3.809 4.819 3.809 8.687 0 1.602-.259 3.003-.776 4.204-.518 1.201-1.196 2.241-2.036 3.12-.84.879-1.787 1.611-2.842 2.197-1.055.586-2.109 1.055-3.164 1.406l8.232 13.008zm-19.219-14.385h4.219c1.758 0 3.223-.195 4.395-.586 1.172-.391 2.109-.977 2.812-1.758.703-.781 1.206-1.758 1.509-2.93.303-1.172.454-2.539.454-4.102 0-1.602-.166-2.964-.498-4.087-.332-1.123-.869-2.041-1.611-2.754-.743-.713-1.704-1.23-2.886-1.553-1.182-.322-2.622-.483-4.321-.483h-4.072v18.253zM132.552 130.086h11.572c.957 0 1.773-.132 2.446-.396s1.235-.62 1.685-1.069c.449-.449.801-.972 1.055-1.567.254-.596.43-1.226.527-1.89l.41-2.578h3.135l-.41 10.488h-32.168v-2.52h.762c.664 0 1.294-.044 1.89-.132.596-.088 1.118-.269 1.567-.542.449-.273.806-.679 1.069-1.216.264-.537.396-1.245.396-2.124v-29.472c0-.938-.127-1.689-.381-2.256s-.605-1.001-1.055-1.304c-.449-.303-.972-.503-1.567-.601-.596-.098-1.235-.146-1.919-.146h-.762v-2.52h30.234l.293 10.488h-3.105l-.293-2.578c-.078-.664-.229-1.294-.454-1.89-.225-.596-.547-1.118-.967-1.567-.42-.449-.947-.806-1.582-1.069-.635-.264-1.401-.396-2.3-.396h-10.078v15.967h14.473v2.93h-14.473v17.96zM194.164 89.627c2.051 0 3.833.171 5.347.513 1.514.342 2.773.815 3.779 1.421 1.006.605 1.758 1.318 2.256 2.139.498.82.747 1.709.747 2.666 0 .645-.132 1.226-.395 1.743-.264.518-.63.957-1.099 1.318-.469.361-1.021.64-1.655.835-.635.195-1.323.293-2.066.293 0-.938-.122-1.865-.366-2.783-.244-.918-.645-1.743-1.201-2.476-.557-.732-1.279-1.328-2.168-1.787-.889-.459-1.987-.688-3.296-.688-2.266 0-4.189.415-5.771 1.245s-2.871 2.041-3.867 3.633-1.719 3.555-2.168 5.889c-.449 2.334-.674 5.005-.674 8.013 0 2.676.234 5.127.703 7.354.469 2.227 1.211 4.136 2.227 5.728 1.016 1.592 2.31 2.827 3.882 3.706s3.462 1.318 5.669 1.318c1.465 0 2.759-.142 3.882-.425 1.123-.283 2.114-.659 2.974-1.128.859-.469 1.616-1.011 2.271-1.626.654-.615 1.235-1.255 1.743-1.919.332.215.605.508.82.879.215.371.322.859.322 1.465 0 .762-.259 1.538-.776 2.329-.518.791-1.304 1.509-2.358 2.153-1.055.645-2.393 1.177-4.014 1.597-1.621.42-3.545.63-5.771.63-2.988 0-5.615-.527-7.881-1.582-2.266-1.055-4.165-2.549-5.698-4.482-1.533-1.934-2.69-4.258-3.472-6.973-.781-2.715-1.172-5.723-1.172-9.023 0-3.242.41-6.211 1.23-8.906.82-2.695 2.036-5.01 3.647-6.943 1.611-1.934 3.618-3.438 6.021-4.512 2.4-1.077 5.183-1.614 8.348-1.614zM249.418 111.6c0 3.301-.41 6.309-1.231 9.023-.82 2.715-2.031 5.039-3.633 6.973-1.602 1.934-3.575 3.428-5.919 4.482-2.344 1.055-5.029 1.582-8.057 1.582-3.184 0-5.957-.527-8.32-1.582-2.363-1.055-4.326-2.549-5.889-4.482-1.562-1.934-2.734-4.263-3.516-6.987-.781-2.725-1.172-5.747-1.172-9.067s.391-6.333 1.172-9.038c.781-2.705 1.953-5.015 3.516-6.929 1.562-1.914 3.535-3.394 5.918-4.439s5.166-1.567 8.35-1.567c3.027 0 5.703.522 8.027 1.567 2.324 1.045 4.287 2.529 5.889 4.453 1.602 1.924 2.812 4.238 3.633 6.943.822 2.705 1.232 5.728 1.232 9.068zm-31.085 0c0 2.969.22 5.62.659 7.954.439 2.334 1.147 4.307 2.124 5.918.977 1.611 2.241 2.842 3.794 3.691 1.553.85 3.442 1.274 5.669 1.274 2.227 0 4.116-.425 5.669-1.274 1.553-.85 2.813-2.08 3.779-3.691.967-1.611 1.665-3.584 2.095-5.918.43-2.334.645-4.985.645-7.954 0-2.969-.215-5.62-.645-7.954-.43-2.334-1.128-4.302-2.095-5.903-.967-1.602-2.217-2.822-3.75-3.662-1.533-.84-3.413-1.26-5.64-1.26s-4.121.42-5.684 1.26c-1.562.84-2.837 2.061-3.823 3.662-.986 1.601-1.699 3.569-2.139 5.903-.438 2.333-.658 4.985-.658 7.954zM292.748 111.6c0 3.301-.41 6.309-1.23 9.023-.82 2.715-2.031 5.039-3.633 6.973-1.602 1.934-3.574 3.428-5.918 4.482-2.344 1.055-5.029 1.582-8.057 1.582-3.184 0-5.957-.527-8.32-1.582-2.363-1.055-4.326-2.549-5.889-4.482-1.562-1.934-2.734-4.263-3.516-6.987-.781-2.725-1.172-5.747-1.172-9.067s.391-6.333 1.172-9.038c.781-2.705 1.953-5.015 3.516-6.929 1.562-1.914 3.535-3.394 5.918-4.439s5.166-1.567 8.35-1.567c3.027 0 5.703.522 8.027 1.567 2.324 1.045 4.287 2.529 5.889 4.453 1.602 1.924 2.812 4.238 3.633 6.943.82 2.705 1.23 5.728 1.23 9.068zm-31.084 0c0 2.969.221 5.62.66 7.954.44 2.334 1.147 4.307 2.123 5.918.977 1.611 2.242 2.842 3.795 3.691 1.553.85 3.441 1.274 5.668 1.274 2.227 0 4.117-.425 5.67-1.274 1.553-.85 2.812-2.08 3.779-3.691.967-1.611 1.664-3.584 2.094-5.918.43-2.334.645-4.985.645-7.954 0-2.969-.215-5.62-.645-7.954-.43-2.334-1.127-4.302-2.094-5.903-.967-1.602-2.217-2.822-3.75-3.662-1.533-.84-3.414-1.26-5.641-1.26s-4.121.42-5.684 1.26c-1.562.84-2.836 2.061-3.822 3.662-.986 1.601-1.699 3.569-2.139 5.903-.438 2.333-.659 4.985-.659 7.954zM328.228 125.75c1.016 1.602 2.002 2.803 2.959 3.604s2.07 1.201 3.34 1.201h.176v2.52h-.85c-1.875 0-3.414-.068-4.615-.205-1.201-.137-2.221-.4-3.061-.791-.84-.391-1.559-.938-2.154-1.641-.596-.703-1.234-1.621-1.918-2.754l-8.115-13.506h-4.98v12.363c0 .879.131 1.587.395 2.124.264.537.621.942 1.07 1.216.449.273.971.454 1.566.542.596.088 1.227.132 1.891.132h.791v2.52h-17.461v-2.52h.762c.664 0 1.293-.044 1.889-.132.596-.088 1.119-.269 1.568-.542.449-.273.805-.679 1.068-1.216.264-.537.396-1.245.396-2.124v-29.707c0-.879-.133-1.587-.396-2.124-.264-.537-.619-.952-1.068-1.245-.449-.293-.973-.483-1.568-.571s-1.225-.132-1.889-.132h-.762v-2.52h16.143c5.195 0 9.062.962 11.602 2.886 2.539 1.924 3.809 4.819 3.809 8.687 0 1.602-.26 3.003-.777 4.204-.518 1.201-1.195 2.241-2.035 3.12-.84.879-1.787 1.611-2.842 2.197-1.055.586-2.109 1.055-3.164 1.406l8.23 13.008zm-19.218-14.385h4.219c1.758 0 3.223-.195 4.395-.586 1.172-.391 2.109-.977 2.812-1.758.703-.781 1.205-1.758 1.508-2.93.303-1.172.455-2.539.455-4.102 0-1.602-.166-2.964-.498-4.087-.332-1.123-.869-2.041-1.611-2.754-.742-.713-1.705-1.23-2.887-1.553-1.182-.322-2.621-.483-4.32-.483h-4.072v18.253zM374.518 111.6c0 3.281-.41 6.245-1.23 8.892-.82 2.646-2.041 4.902-3.662 6.768-1.621 1.865-3.652 3.301-6.094 4.307-2.441 1.006-5.293 1.509-8.555 1.509h-18.369v-2.52h.762c.684 0 1.322-.049 1.918-.146.596-.098 1.119-.298 1.568-.601.449-.303.801-.737 1.055-1.304.254-.566.381-1.318.381-2.256v-29.415c0-.879-.133-1.587-.396-2.124-.264-.537-.619-.952-1.068-1.245s-.973-.483-1.568-.571-1.225-.132-1.889-.132h-.762v-2.52h18.369c3.086 0 5.84.474 8.262 1.421 2.422.947 4.467 2.329 6.137 4.146 1.67 1.816 2.945 4.053 3.824 6.709.877 2.656 1.317 5.683 1.317 9.082zm-20.948 18.427c2.383 0 4.467-.405 6.254-1.216 1.787-.811 3.277-1.997 4.469-3.56 1.191-1.562 2.084-3.486 2.68-5.771.596-2.285.895-4.912.895-7.881 0-5.957-1.188-10.508-3.561-13.652-2.373-3.145-5.932-4.717-10.678-4.717h-5.273v36.797h5.214zM377.83 133.074v-2.52h.762c.684 0 1.324-.049 1.92-.146.596-.098 1.117-.298 1.566-.601.449-.303.801-.737 1.055-1.304.254-.566.381-1.318.381-2.256v-29.18c0-.938-.127-1.689-.381-2.256s-.605-1.001-1.055-1.304c-.449-.303-.971-.503-1.566-.601-.596-.098-1.236-.146-1.92-.146h-.762v-2.52h17.461v2.52h-.791c-.664 0-1.299.049-1.904.146-.605.098-1.127.298-1.566.601-.44.303-.791.737-1.055 1.304s-.396 1.318-.396 2.256v29.18c0 .938.133 1.689.396 2.256.264.566.615 1.001 1.055 1.304.439.303.961.503 1.566.601.605.098 1.24.146 1.904.146h.791v2.52h-17.461zM431.707 133.074l-22.5-34.57v27.744c0 .938.133 1.689.396 2.256.264.566.615 1.001 1.055 1.304.44.303.961.503 1.566.601.605.098 1.24.146 1.904.146h.791v2.52h-15.059v-2.52h.762c.684 0 1.324-.049 1.92-.146.596-.098 1.117-.298 1.566-.601.449-.303.801-.737 1.055-1.304.254-.566.381-1.318.381-2.256v-29.414c0-.879-.131-1.587-.395-2.124s-.621-.952-1.07-1.245c-.449-.293-.971-.483-1.566-.571-.596-.088-1.227-.132-1.891-.132h-.762v-2.52h10.986l21.475 33.164v-26.572c0-.879-.131-1.587-.395-2.124-.264-.537-.621-.952-1.07-1.245-.449-.293-.971-.483-1.566-.571s-1.227-.132-1.891-.132h-.791v-2.52h15.059v2.52h-.762c-.684 0-1.322.049-1.918.146-.596.098-1.119.298-1.568.601-.449.303-.801.737-1.055 1.304-.254.566-.381 1.318-.381 2.256v36.006h-4.276zM451.896 118.748l-2.285 6.299c-.176.469-.312.933-.41 1.392-.098.459-.146.854-.146 1.187 0 1.016.326 1.758.98 2.227.654.469 1.656.703 3.004.703h1.377v2.52h-14.648v-2.52h1.143c.586 0 1.084-.064 1.494-.191.41-.127.781-.366 1.113-.718.332-.352.648-.83.951-1.436.303-.606.641-1.387 1.012-2.344l13.301-35.625h4.688l13.564 37.119c.234.625.473 1.143.717 1.553.244.41.533.737.865.981.332.244.713.415 1.143.513.43.098.938.146 1.523.146h.791v2.52h-16.494v-2.52h1.377c2.402 0 3.604-.957 3.604-2.871 0-.332-.045-.674-.133-1.025-.088-.352-.209-.752-.365-1.201l-2.402-6.709h-15.764zm10.957-13.506c-.625-1.777-1.197-3.442-1.715-4.995s-.941-3.052-1.273-4.497c-.137.723-.299 1.421-.484 2.095-.186.674-.385 1.362-.6 2.065-.215.703-.459 1.44-.732 2.212-.273.771-.586 1.626-.938 2.563l-4.072 11.045h13.535l-3.721-10.488zM498.629 126.248c0 .938.133 1.689.397 2.256.264.566.615 1.001 1.055 1.304.439.303.961.503 1.566.601.606.098 1.24.146 1.904.146h1.377v2.52h-18.662v-2.52h1.377c.664 0 1.295-.044 1.891-.132.596-.088 1.117-.269 1.566-.542.449-.273.807-.679 1.07-1.216.264-.537.395-1.245.395-2.124v-33.311h-5.742c-.879 0-1.615.132-2.211.396-.596.264-1.084.62-1.465 1.069-.381.449-.664.972-.85 1.567-.186.596-.318 1.225-.396 1.89l-.322 2.578h-3.105l.293-10.488h33.779l.293 10.488h-3.105l-.293-2.578c-.078-.664-.215-1.294-.41-1.89-.195-.596-.479-1.118-.85-1.567-.371-.449-.859-.806-1.465-1.069-.605-.264-1.357-.396-2.256-.396h-5.83v33.018zM516.324 133.074v-2.52h.762c.684 0 1.324-.049 1.92-.146.596-.098 1.117-.298 1.566-.601.449-.303.801-.737 1.055-1.304.254-.566.381-1.318.381-2.256v-29.18c0-.938-.127-1.689-.381-2.256-.254-.566-.606-1.001-1.055-1.304-.449-.303-.971-.503-1.566-.601-.596-.098-1.236-.146-1.92-.146h-.762v-2.52h17.461v2.52h-.791c-.664 0-1.299.049-1.904.146-.605.098-1.127.298-1.566.601-.439.303-.791.737-1.055 1.304-.264.566-.397 1.318-.397 2.256v29.18c0 .938.133 1.689.397 2.256.264.566.615 1.001 1.055 1.304.44.303.961.503 1.566.601.606.098 1.24.146 1.904.146h.791v2.52h-17.461zM575.975 111.6c0 3.301-.41 6.309-1.231 9.023-.82 2.715-2.031 5.039-3.633 6.973-1.602 1.934-3.574 3.428-5.918 4.482-2.344 1.055-5.029 1.582-8.057 1.582-3.184 0-5.957-.527-8.32-1.582-2.363-1.055-4.326-2.549-5.889-4.482-1.562-1.934-2.734-4.263-3.516-6.987s-1.172-5.747-1.172-9.067.391-6.333 1.172-9.038 1.953-5.015 3.516-6.929c1.562-1.914 3.535-3.394 5.918-4.439s5.166-1.567 8.35-1.567c3.027 0 5.703.522 8.027 1.567 2.324 1.045 4.287 2.529 5.889 4.453 1.602 1.924 2.812 4.238 3.633 6.943.82 2.705 1.231 5.728 1.231 9.068zm-31.084 0c0 2.969.219 5.62.658 7.954.44 2.334 1.148 4.307 2.125 5.918.977 1.611 2.24 2.842 3.793 3.691 1.553.85 3.443 1.274 5.67 1.274s4.115-.425 5.668-1.274c1.553-.85 2.812-2.08 3.779-3.691.967-1.611 1.666-3.584 2.096-5.918s.644-4.985.644-7.954c0-2.969-.215-5.62-.644-7.954s-1.129-4.302-2.096-5.903c-.967-1.602-2.217-2.822-3.75-3.662-1.533-.84-3.412-1.26-5.639-1.26-2.227 0-4.121.42-5.684 1.26-1.562.84-2.838 2.061-3.824 3.662-.986 1.601-1.699 3.569-2.139 5.903-.439 2.333-.657 4.985-.657 7.954zM609.934 133.074l-22.5-34.57v27.744c0 .938.131 1.689.394 2.256.264.566.615 1.001 1.055 1.304.439.303.963.503 1.568.601.605.098 1.24.146 1.904.146h.791v2.52h-15.059v-2.52h.762c.684 0 1.322-.049 1.918-.146.596-.098 1.119-.298 1.568-.601.449-.303.801-.737 1.055-1.304.254-.566.381-1.318.381-2.256v-29.414c0-.879-.133-1.587-.396-2.124-.264-.537-.619-.952-1.068-1.245-.449-.293-.973-.483-1.568-.571s-1.225-.132-1.889-.132h-.762v-2.52h10.986l21.475 33.164v-26.572c0-.879-.133-1.587-.396-2.124-.264-.537-.619-.952-1.068-1.245s-.973-.483-1.568-.571-1.225-.132-1.889-.132h-.791v-2.52h15.059v2.52h-.762c-.684 0-1.324.049-1.92.146-.596.098-1.117.298-1.566.601-.449.303-.801.737-1.055 1.304s-.381 1.318-.381 2.256v36.006h-4.278z"/></g><path fill="#fff" d="M0 63.74h283v3h-283zM339 63.74h283v3h-283zM327.291 61.298c-.395-1.002-.993-1.863-1.681-2.578-.684-.721-1.517-1.266-2.437-1.648-.926-.385-1.945-.574-3.025-.574-1.084 0-2.069.176-2.948.523-.877.355-1.673.801-2.392 1.342-.309.232-.649.528-.94.792l1.928 2.537.014-.012c.557-.492 1.15-1.003 1.793-1.341.635-.334 1.336-.598 2.1-.598h.047c1.34 0 2.414.561 3.227 1.482.814.926 1.219 2.2 1.219 3.729 0 .545-.098 1.119-.287 1.671-.188.562-.463 1.085-.814 1.546-.346.459-.797.852-1.336 1.15-.543.305-1.148.461-1.816.461-.603 0-1.172-.087-1.693-.262-.527-.176-1.055-.457-1.58-.837-.523-.381-1.08-.89-1.672-1.529-.59-.635-1.422-1.728-1.863-2.437-.445-.703-1.922-2.789-1.934-2.772-1.277-1.652-2.607-2.976-3.99-3.967-1.389-.984-3.006-1.479-4.852-1.479-1.178 0-2.272.207-3.275.623-1.002.41-1.869.994-2.602 1.74-.733.75-1.307 1.641-1.723 2.678-.414 1.037-.621 2.174-.621 3.416s.217 2.373.645 3.393c.434 1.02 1.004 1.904 1.723 2.654.715.75 1.543 1.318 2.484 1.717.938.398 1.918.598 2.941.598.984 0 1.893-.141 2.725-.428.822-.287 1.605-.68 2.338-1.172.43-.289 1.022-.803 1.444-1.182l-1.972-2.594-.404.36c-.527.445-1.09.786-1.697 1.055-.605.271-1.242.385-1.91.385h-.096c-1.336 0-2.443-.441-3.322-1.367-.873-.92-1.312-2.043-1.312-3.382 0-1.465.393-2.672 1.172-3.624.779-.959 1.887-1.431 3.322-1.431.791 0 1.502.142 2.123.429.621.287 1.205.669 1.744 1.149.541.479 1.049 1.031 1.529 1.674.477.635 1.482 1.96 1.482 1.96l1.91 2.578c1.658 2.168 3.193 3.639 4.611 4.424 1.418.779 2.83 1.166 4.23 1.166 1.02 0 2.004-.189 2.961-.574.959-.381 1.803-.943 2.535-1.693.732-.75 1.432-1.658 1.877-2.725.445-1.066.779-2.268.779-3.609v-.047c0-1.243-.311-2.368-.709-3.37z"/></svg>