<?xml version="1.0" standalone="no"?>
<!DOCTYPE svg PUBLIC "-//W3C//DTD SVG 1.1//EN" "http://www.w3.org/Graphics/SVG/1.1/DTD/svg11.dtd" >
<svg xmlns="http://www.w3.org/2000/svg">
<metadata>
This is a custom SVG font generated by IcoMoon.
0
</metadata>
<defs>
<font id="Geomicons" horiz-adv-x="512" >
<font-face units-per-em="512" ascent="480" descent="-32" />
<missing-glyph horiz-adv-x="512" />
<glyph unicode="&#xe000;" d="M 480.00-32.00L 32.00-32.00 c-17.672,0.00-32.00,14.328-32.00,32.00L0.00,448.00 c0.00,17.672, 14.328,32.00, 32.00,32.00l 448.00,0.00 c 17.672,0.00, 32.00-14.328, 32.00-32.00l0.00-448.00 C 512.00-17.672, 497.672-32.00, 480.00-32.00z
		 M 224.00,112.00c 0.584,0.00, 1.18,0.016, 1.772,0.048c 9.084,0.508, 17.532,4.856, 23.22,11.96l 128.00,160.00C 381.712,289.912, 384.00,296.972, 384.00,303.984
		c0.00,9.388-4.108,18.684-12.008,25.00C 366.092,333.708, 359.032,336.00, 352.008,336.00c-9.384,0.00-18.68-4.112-25.00-12.008L 221.352,191.908l-38.72,38.72
		c-6.248,6.248-14.436,9.372-22.616,9.376c-8.196,0.004-16.392-3.12-22.64-9.376C 131.124,224.384, 128.00,216.20, 128.00,208.016
		c-0.008-8.196, 3.116-16.392, 9.376-22.64l 64.00-64.00C 207.392,115.356, 215.54,112.00, 224.00,112.00L 224.00,112.00z"  />
<glyph unicode="&#xe001;" d="M0.00,224.00C0.00,365.384, 114.608,480.00, 256.00,480.00s 256.00-114.616, 256.00-256.00s-114.608-256.00-256.00-256.00S0.00,82.616,0.00,224.00z M 224.00,112.00c 0.584,0.00, 1.18,0.016, 1.772,0.048
		c 9.084,0.508, 17.532,4.856, 23.22,11.96l 128.00,160.00C 381.712,289.912, 384.00,296.972, 384.00,303.984c0.00,9.388-4.108,18.684-12.008,25.00
		C 366.092,333.708, 359.032,336.00, 352.008,336.00c-9.384,0.00-18.68-4.112-25.00-12.008L 221.344,191.908l-38.712,38.72
		c-6.248,6.248-14.436,9.372-22.616,9.376c-8.196,0.004-16.392-3.12-22.64-9.376C 131.124,224.384, 128.00,216.20, 128.00,208.016
		c-0.008-8.196, 3.116-16.392, 9.376-22.64l 64.00-64.00C 207.392,115.356, 215.54,112.00, 224.00,112.00L 224.00,112.00z"  />
<glyph unicode="&#xe002;" d="M 506.244,236.292l-96.00,80.00c-2.928,2.44-6.572,3.708-10.248,3.708c-2.30,0.00-4.616-0.496-6.78-1.512
		C 387.592,315.856, 384.00,310.208, 384.00,304.00l0.00-48.00 L 288.00,256.00 L 288.00,352.00 l 48.00,0.00 c 6.208,0.00, 11.856,3.592, 14.488,9.216c 2.636,5.62, 1.776,12.256-2.196,17.028l-80.00,96.00
		C 265.248,477.892, 260.752,480.00, 256.00,480.00s-9.248-2.108-12.292-5.756l-80.00-96.00c-3.972-4.768-4.832-11.408-2.196-17.028C 164.144,355.592, 169.792,352.00, 176.00,352.00
		l 48.00,0.00 l0.00-96.00 L 128.00,256.00 L 128.00,304.00 c0.00,6.208-3.592,11.856-9.216,14.488C 116.62,319.504, 114.304,320.00, 112.004,320.00c-3.676,0.00-7.316-1.264-10.248-3.708l-96.00-80.00
		C 2.108,233.248,0.00,228.752,0.00,224.00s 2.108-9.248, 5.756-12.292l 96.00-80.00C 104.688,129.264, 108.328,128.00, 112.004,128.00c 2.30,0.00, 4.616,0.496, 6.78,1.512
		C 124.408,132.144, 128.00,137.792, 128.00,144.00L 128.00,192.00 l 96.00,0.00 l0.00-96.00 L 176.00,96.00 c-6.208,0.00-11.856-3.592-14.488-9.216c-2.636-5.62-1.776-12.256, 2.196-17.028l 80.00-96.00
		C 246.752-29.892, 251.248-32.00, 256.00-32.00s 9.248,2.108, 12.292,5.756l 80.00,96.00c 3.972,4.768, 4.832,11.408, 2.196,17.028
		C 347.856,92.408, 342.208,96.00, 336.00,96.00L 288.00,96.00 L 288.00,192.00 l 96.00,0.00 l0.00-48.00 c0.00-6.208, 3.592-11.856, 9.216-14.488C 395.38,128.496, 397.696,128.00, 399.996,128.00
		c 3.676,0.00, 7.316,1.264, 10.248,3.708l 96.00,80.00C 509.892,214.752, 512.00,219.248, 512.00,224.00S 509.892,233.248, 506.244,236.292z"  />
<glyph unicode="&#xe003;" d="M 480.00-32.00L 160.00-32.00 c-17.672,0.00-32.00,14.328-32.00,32.00L 128.00,320.00 c0.00,17.672, 14.328,32.00, 32.00,32.00l 320.00,0.00 c 17.672,0.00, 32.00-14.328, 32.00-32.00l0.00-320.00 C 512.00-17.672, 497.672-32.00, 480.00-32.00z
		 M 192.00,32.00l 256.00,0.00 L 448.00,288.00 L 192.00,288.00 L 192.00,32.00 z M 96.00,160.00l-32.00,0.00 L 64.00,416.00 l 256.00,0.00 l0.00-32.00 l 64.00,0.00 L 384.00,448.00 c0.00,17.672-14.328,32.00-32.00,32.00L 32.00,480.00 C 14.328,480.00,0.00,465.672,0.00,448.00l0.00-320.00 c0.00-17.672, 14.328-32.00, 32.00-32.00l 64.00,0.00 L 96.00,160.00 z"  />
<glyph unicode="&#xe004;" d="M 480.00,480.00L 32.00,480.00 C 14.328,480.00,0.00,465.672,0.00,448.00l0.00-448.00 c0.00-17.672, 14.328-32.00, 32.00-32.00l 448.00,0.00 c 17.672,0.00, 32.00,14.328, 32.00,32.00L 512.00,448.00 C 512.00,465.672, 497.672,480.00, 480.00,480.00z M 320.00,308.00l-24.00,0.00 
		c-16.528,0.00-16.00-6.288-16.00-17.792L 280.00,272.00 l 40.00,0.00 l-8.00-48.00l-32.00,0.00 l0.00-128.00 L 224.00,96.00 L 224.00,224.00 l-24.00,0.00 L 200.00,272.00 l 24.00,0.00 l0.00,22.608 C 224.00,330.592, 241.96,352.00, 284.404,352.00L 320.00,352.00 L 320.00,308.00 z"  />
<glyph unicode="&#xe005;" d="M 480.008,288.00 C 497.68,288.00 512.008,273.672 512.008,256.00 L 512.008,192.00 C 512.008,174.328 497.68,160.00 480.008,160.00 L 320.008,160.00 L 320.008,0.00 C 320.008-17.672 305.68-32.00 288.008-32.00 L 224.008-32.00 C 206.336-32.00 192.008-17.672 192.008,0.00 L 192.008,160.00 L 32.008,160.00 C 14.336,160.00 0.008,174.328 0.008,192.00 L 0.008,256.00 C 0.008,273.672 14.336,288.00 32.008,288.00 L 192.008,288.00 L 192.008,448.00 C 192.008,465.672 206.336,480.00 224.008,480.00 L 288.008,480.00 C 305.68,480.00 320.008,465.672 320.008,448.00 L 320.008,288.00 L 480.008,288.00 Z"  />
<glyph unicode="&#xe006;" d="M 510.78,342.124 C 511.60,340.14 512.00,338.064 512.00,336.00 C 512.00,331.836 510.376,327.748 507.312,324.688 L 267.312,84.688 C 264.188,81.564 260.092,80.00 256.00,80.00 C 251.908,80.00 247.812,81.564 244.688,84.688 L 4.688,324.688 C 1.624,327.748 0.00,331.836 0.00,336.00 C 0.00,338.064 0.40,340.14 1.22,342.124 C 3.696,348.10 9.532,352.00 16.00,352.00 L 496.00,352.00 C 502.468,352.00 508.304,348.10 510.78,342.124 Z"  />
<glyph unicode="&#xe007;" d="M 512.00,416.00l0.00-384.00 c0.00-17.672-14.328-32.00-32.00-32.00L 32.00,0.00 c-17.672,0.00-32.00,14.328-32.00,32.00L0.00,416.00 c0.00,17.672, 14.328,32.00, 32.00,32.00l 448.00,0.00 C 497.672,448.00, 512.00,433.672, 512.00,416.00z M 448.00,384.00
		L 64.00,384.00 l0.00-96.00 l 384.00,0.00 L 448.00,384.00 z M 160.00,256.00L 64.00,256.00 l0.00-192.00 l 96.00,0.00 L 160.00,256.00 z M 448.00,256.00L 192.00,256.00 l0.00-192.00 l 256.00,0.00 L 448.00,256.00 z"  />
<glyph unicode="&#xe008;" d="M 480.00,480.00L 32.00,480.00 C 14.328,480.00,0.00,465.672,0.00,448.00l0.00-448.00 c0.00-17.672, 14.328-32.00, 32.00-32.00l 448.00,0.00 c 17.672,0.00, 32.00,14.328, 32.00,32.00L 512.00,448.00 C 512.00,465.672, 497.672,480.00, 480.00,480.00z M 256.00,160.00l 64.00,0.00 
		c 17.672,0.00, 32.00-14.328, 32.00-32.00s-14.328-32.00-32.00-32.00L 256.00,96.00 c-60.092,0.00-96.00,48.812-96.00,96.00L 160.00,320.00 c0.00,17.672, 14.328,32.00, 32.00,32.00s 32.00-14.328, 32.00-32.00l0.00-32.00 l 96.00,0.00 c 17.672,0.00, 32.00-14.328, 32.00-32.00
		s-14.328-32.00-32.00-32.00L 224.00,224.00 l0.00-32.00 C 224.00,179.136, 232.524,160.00, 256.00,160.00z"  />
<glyph unicode="&#xe009;" d="M 512.00,160.00 L 320.00,160.00 L 320.00-32.00 L 192.00-32.00 L 192.00,160.00 L 0.00,160.00 L 0.00,288.00 L 192.00,288.00 L 192.00,480.00 L 320.00,480.00 L 320.00,288.00 L 512.00,288.00 Z"  />
<glyph unicode="&#xe00a;" d="M 64.00,224.00L0.00,224.00 L0.00,352.00 c0.00,17.672, 14.328,32.00, 32.00,32.00l 352.00,0.00 L 384.00,432.00 c0.00,6.212, 3.592,11.856, 9.212,14.492C 395.384,447.504, 397.696,448.00, 400.00,448.00
		c 3.672,0.00, 7.312-1.264, 10.244-3.712l 96.00-80.00C 509.892,361.248, 512.00,356.752, 512.00,352.00s-2.108-9.248-5.756-12.288l-96.00-80.00
		C 407.312,257.264, 403.672,256.00, 400.00,256.00c-2.304,0.00-4.616,0.496-6.788,1.508C 387.592,260.144, 384.00,265.788, 384.00,272.00L 384.00,320.00 L 64.00,320.00 L 64.00,224.00 z M 448.00,128.00L 128.00,128.00 L 128.00,176.00 
		c0.00,6.212-3.592,11.856-9.212,14.492C 116.624,191.504, 114.304,192.00, 112.00,192.00c-3.672,0.00-7.312-1.264-10.244-3.712l-96.00-80.00
		C 2.108,105.248,0.00,100.752,0.00,96.00s 2.108-9.248, 5.756-12.288l 96.00-80.00C 104.688,1.264, 108.328,0.00, 112.00,0.00c 2.304,0.00, 4.624,0.496, 6.788,1.508
		C 124.408,4.144, 128.00,9.788, 128.00,16.00l0.00,48.00 l 352.00,0.00 c 17.672,0.00, 32.00,14.328, 32.00,32.00L 512.00,224.00 l-64.00,0.00 L 448.00,128.00 z"  />
<glyph unicode="&#xe00b;" d="M 512.00,64.00L 128.00,64.00 L 128.00,128.00 l 384.00,0.00 L 512.00,64.00 z M 512.00,256.00L 128.00,256.00 l0.00-64.00 l 384.00,0.00 L 512.00,256.00 z M 512.00,384.00L 128.00,384.00 l0.00-64.00 l 384.00,0.00 L 512.00,384.00 z M 32.00,384.00c-17.672,0.00-32.00-14.328-32.00-32.00s 14.328-32.00, 32.00-32.00s 32.00,14.328, 32.00,32.00
		S 49.672,384.00, 32.00,384.00z M 32.00,256.00c-17.672,0.00-32.00-14.328-32.00-32.00s 14.328-32.00, 32.00-32.00s 32.00,14.328, 32.00,32.00S 49.672,256.00, 32.00,256.00z M 32.00,128.00c-17.672,0.00-32.00-14.328-32.00-32.00s 14.328-32.00, 32.00-32.00
		s 32.00,14.328, 32.00,32.00S 49.672,128.00, 32.00,128.00z"  />
<glyph unicode="&#xe00c;" d="M 512.00,32.00c0.00-5.50-1.408-11.00-4.248-15.936c-5.72-9.936-16.312-16.064-27.752-16.064L 32.00,0.00 c-11.468,0.00-22.032,6.124-27.752,16.064
		C 1.408,21.032,0.00,26.564,0.00,32.124c0.00,5.532, 1.468,11.064, 4.376,16.00l 224.00,384.00C 234.092,441.936, 244.624,448.00, 256.00,448.00s 21.908-6.064, 27.624-15.876l 224.00-384.00
		C 510.564,43.156, 512.00,37.564, 512.00,32.00z M 256.00,32.00c 22.084,0.00, 40.00,17.916, 40.00,40.00s-17.916,40.00-40.00,40.00s-40.00-17.916-40.00-40.00S 233.916,32.00, 256.00,32.00z M 304.00,320.00
		L 208.00,320.00 l 16.00-176.00l 64.00,0.00 L 304.00,320.00z"  />
<glyph unicode="&#xe00d;" d="M 448.00,288.00 C 483.352,288.00 512.00,259.348 512.00,224.00 C 512.00,188.652 483.352,160.00 448.00,160.00 L 320.00,160.00 L 320.00,32.00 C 320.00-3.348 291.352-32.00 256.00-32.00 C 220.656-32.00 192.00-3.348 192.00,32.00 L 192.00,160.00 L 64.00,160.00 C 28.656,160.00 0.00,188.652 0.00,224.00 C 0.00,259.348 28.656,288.00 64.00,288.00 L 192.00,288.00 L 192.00,416.00 C 192.00,451.348 220.656,480.00 256.00,480.00 C 291.352,480.00 320.00,451.348 320.00,416.00 L 320.00,288.00 L 448.00,288.00 Z"  />
<glyph unicode="&#xe00e;" d="M 508.288,165.756l-80.00-96.00c-3.04-3.648-7.54-5.756-12.288-5.756s-9.248,2.108-12.288,5.756l-80.00,96.00
		C 321.264,168.692, 320.00,172.332, 320.00,176.008c0.00,2.304, 0.492,4.616, 1.508,6.78C 324.14,188.408, 329.788,192.00, 336.00,192.00l 48.00,0.00 L 384.00,320.00 L 224.00,320.00 L 224.00,384.00 l 192.00,0.00 
		c 17.672,0.00, 32.00-14.328, 32.00-32.00l0.00-160.00 l 48.00,0.00 c 6.212,0.00, 11.86-3.592, 14.492-9.212c 1.016-2.164, 1.508-4.476, 1.508-6.78
		C 512.00,172.332, 510.736,168.692, 508.288,165.756z M 128.00,256.00l 48.00,0.00 c 6.212,0.00, 11.86,3.592, 14.492,9.212C 191.508,267.376, 192.00,269.688, 192.00,271.992
		c0.00,3.676-1.264,7.316-3.712,10.248l-80.00,96.00C 105.248,381.892, 100.752,384.00, 96.00,384.00s-9.248-2.108-12.288-5.756l-80.00-96.00
		C 1.264,279.308,0.00,275.668,0.00,271.992c0.00-2.304, 0.492-4.616, 1.508-6.78C 4.14,259.592, 9.788,256.00, 16.00,256.00l 48.00,0.00 l0.00-160.00 c0.00-17.672, 14.328-32.00, 32.00-32.00l 192.00,0.00 L 288.00,128.00 L 128.00,128.00 
		L 128.00,256.00 z"  />
<glyph unicode="&#xe00f;" d="M 512.00-16.00c0.00-8.80-7.204-16.00-16.00-16.00L 16.00-32.00 c-8.80,0.00-16.00,7.20-16.00,16.00l0.00,96.00 c0.00,8.80, 7.20,16.00, 16.00,16.00l 480.00,0.00 c 8.796,0.00, 16.00-7.20, 16.00-16.00L 512.00-16.00 z M 512.00,272.00c0.00,8.80-7.204,16.00-16.00,16.00
		L 16.00,288.00 c-8.80,0.00-16.00-7.20-16.00-16.00l0.00-96.00 c0.00-8.80, 7.20-16.00, 16.00-16.00l 480.00,0.00 c 8.796,0.00, 16.00,7.20, 16.00,16.00L 512.00,272.00 z M 512.00,464.00c0.00,8.80-7.204,16.00-16.00,16.00L 16.00,480.00 C 7.20,480.00,0.00,472.80,0.00,464.00l0.00-96.00 c0.00-8.80, 7.20-16.00, 16.00-16.00
		l 480.00,0.00 c 8.796,0.00, 16.00,7.20, 16.00,16.00L 512.00,464.00 z"  />
<glyph unicode="&#xe010;" d="M 256.00,480.00c 141.384,0.00, 256.00-114.616, 256.00-256.00s-114.616-256.00-256.00-256.00S0.00,82.616,0.00,224.00S 114.616,480.00, 256.00,480.00z M 256.00,280.00c 30.924,0.00, 56.00,25.076, 56.00,56.00
		s-25.076,56.00-56.00,56.00s-56.00-25.076-56.00-56.00S 225.076,280.00, 256.00,280.00z M 304.00,256.00L 208.00,256.00 l0.00-192.00 l 96.00,0.00 L 304.00,256.00 z"  />
<glyph unicode="&#xe011;" d="M 346.508,224.00l 114.748,114.748c 12.496,12.492, 18.748,28.864, 18.748,45.24c 0.008,16.388-6.248,32.772-18.748,45.268
		c-12.488,12.492-28.864,18.744-45.24,18.748c-16.384,0.004-32.772-6.248-45.268-18.748L 256.00,314.508L 141.252,429.252
		C 128.764,441.748, 112.392,447.996, 96.016,448.00c-16.384,0.004-32.772-6.248-45.268-18.748C 38.248,416.756, 32.008,400.388, 32.00,384.016
		c0.00-16.384, 6.244-32.768, 18.748-45.268L 165.492,224.00L 50.748,109.252C 38.248,96.756, 32.008,80.388, 32.00,64.016c0.00-16.384, 6.244-32.768, 18.748-45.268
		C 63.244,6.248, 79.624,0.00, 96.00,0.00c 16.384,0.00, 32.756,6.248, 45.252,18.748L 256.00,133.492l 114.748-114.748C 383.244,6.248, 399.624,0.00, 416.00,0.00
		c 16.384,0.00, 32.756,6.248, 45.252,18.748c 12.496,12.492, 18.748,28.864, 18.748,45.24c 0.008,16.388-6.248,32.772-18.748,45.268L 346.508,224.00z"  />
<glyph unicode="&#xe012;" d="M 508.288,133.756l-80.00-96.00c-3.04-3.648-7.54-5.756-12.288-5.756s-9.248,2.108-12.288,5.756l-80.00,96.00
		C 321.264,136.692, 320.00,140.332, 320.00,144.008c0.00,2.304, 0.492,4.616, 1.508,6.78C 324.14,156.408, 329.788,160.00, 336.00,160.00l 48.00,0.00 L 384.00,352.00 L 224.00,352.00 L 224.00,416.00 l 192.00,0.00 
		c 17.672,0.00, 32.00-14.328, 32.00-32.00l0.00-224.00 l 48.00,0.00 c 6.212,0.00, 11.86-3.592, 14.492-9.212c 1.016-2.164, 1.508-4.476, 1.508-6.78
		C 512.00,140.332, 510.736,136.692, 508.288,133.756z M 128.00,288.00l 48.00,0.00 c 6.212,0.00, 11.86,3.592, 14.492,9.212C 191.508,299.376, 192.00,301.688, 192.00,303.992
		c0.00,3.676-1.264,7.316-3.712,10.248l-80.00,96.00C 105.248,413.892, 100.752,416.00, 96.00,416.00s-9.248-2.108-12.288-5.756l-80.00-96.00
		C 1.264,311.308,0.00,307.668,0.00,303.992c0.00-2.304, 0.492-4.616, 1.508-6.78C 4.14,291.592, 9.788,288.00, 16.00,288.00l 48.00,0.00 l0.00-224.00 c0.00-17.672, 14.328-32.00, 32.00-32.00l 192.00,0.00 L 288.00,96.00 L 128.00,96.00 
		L 128.00,288.00 z"  />
<glyph unicode="&#xe013;" d="M 128.00,368.00c0.00-8.80-7.204-16.00-16.00-16.00L 16.00,352.00 c-8.80,0.00-16.00,7.20-16.00,16.00L0.00,464.00 c0.00,8.80, 7.20,16.00, 16.00,16.00l 96.00,0.00 c 8.796,0.00, 16.00-7.20, 16.00-16.00L 128.00,368.00 z M 320.00,464.00c0.00,8.80-7.204,16.00-16.00,16.00L 208.00,480.00 
		c-8.80,0.00-16.00-7.20-16.00-16.00l0.00-96.00 c0.00-8.80, 7.20-16.00, 16.00-16.00l 96.00,0.00 c 8.796,0.00, 16.00,7.20, 16.00,16.00L 320.00,464.00 z M 512.00,464.00c0.00,8.80-7.204,16.00-16.00,16.00l-96.00,0.00 c-8.80,0.00-16.00-7.20-16.00-16.00l0.00-96.00 c0.00-8.80, 7.20-16.00, 16.00-16.00
		l 96.00,0.00 c 8.796,0.00, 16.00,7.20, 16.00,16.00L 512.00,464.00 z M 128.00,272.00c0.00,8.80-7.204,16.00-16.00,16.00L 16.00,288.00 c-8.80,0.00-16.00-7.20-16.00-16.00l0.00-96.00 c0.00-8.80, 7.20-16.00, 16.00-16.00l 96.00,0.00 c 8.796,0.00, 16.00,7.20, 16.00,16.00L 128.00,272.00 z M 320.00,272.00
		c0.00,8.80-7.204,16.00-16.00,16.00L 208.00,288.00 c-8.80,0.00-16.00-7.20-16.00-16.00l0.00-96.00 c0.00-8.80, 7.20-16.00, 16.00-16.00l 96.00,0.00 c 8.796,0.00, 16.00,7.20, 16.00,16.00L 320.00,272.00 z M 512.00,272.00c0.00,8.80-7.204,16.00-16.00,16.00l-96.00,0.00 
		c-8.80,0.00-16.00-7.20-16.00-16.00l0.00-96.00 c0.00-8.80, 7.20-16.00, 16.00-16.00l 96.00,0.00 c 8.796,0.00, 16.00,7.20, 16.00,16.00L 512.00,272.00 z M 128.00,80.00c0.00,8.80-7.204,16.00-16.00,16.00L 16.00,96.00 c-8.80,0.00-16.00-7.20-16.00-16.00l0.00-96.00 c0.00-8.80, 7.20-16.00, 16.00-16.00
		l 96.00,0.00 c 8.796,0.00, 16.00,7.20, 16.00,16.00L 128.00,80.00 z M 320.00,80.00c0.00,8.80-7.204,16.00-16.00,16.00L 208.00,96.00 c-8.80,0.00-16.00-7.20-16.00-16.00l0.00-96.00 c0.00-8.80, 7.20-16.00, 16.00-16.00l 96.00,0.00 c 8.796,0.00, 16.00,7.20, 16.00,16.00L 320.00,80.00 z M 512.00,80.00
		c0.00,8.80-7.204,16.00-16.00,16.00l-96.00,0.00 c-8.80,0.00-16.00-7.20-16.00-16.00l0.00-96.00 c0.00-8.80, 7.20-16.00, 16.00-16.00l 96.00,0.00 c 8.796,0.00, 16.00,7.20, 16.00,16.00L 512.00,80.00 z"  />
<glyph unicode="&#xe014;" d="M 352.00,480.00L 160.00,480.00 c-8.484,0.00-16.624-3.372-22.624-9.372l-128.004-128.00C 3.368,336.624,0.00,328.488,0.00,320.00l0.00-192.00 c0.00-8.488, 3.368-16.624, 9.372-22.628
		l 128.004-128.00c 6.00-6.00, 14.14-9.372, 22.624-9.372l 192.00,0.00 c 8.484,0.00, 16.624,3.372, 22.624,9.372l 128.00,128.00C 508.628,111.376, 512.00,119.512, 512.00,128.00L 512.00,320.00 
		c0.00,8.488-3.372,16.624-9.376,22.628l-128.00,128.00C 368.624,476.628, 360.484,480.00, 352.00,480.00L 352.00,480.00z M 304.00,224.00l 64.00-64.00L 320.00,112.00L 256.00,176.00L 192.00,112.00L 144.00,160.00l 64.00,64.00L 144.00,288.00
		l 48.00,48.00l 64.00-64.00l 64.00,64.00l 48.00-48.00L 304.00,224.00z"  />
<glyph unicode="&#xe015;" d="M 352.00,480.00 L 352.00,480.00 C 360.484,480.00 368.624,476.628 374.624,470.628 L 502.624,342.628 C 508.628,336.624 512.00,328.488 512.00,320.00 L 512.00,128.00 C 512.00,119.512 508.628,111.376 502.624,105.372 L 374.624-22.628 C 368.624-28.628 360.484-32.00 352.00-32.00 L 160.00-32.00 C 151.516-32.00 143.376-28.628 137.376-22.628 L 9.372,105.372 C 3.368,111.376 0.00,119.512 0.00,128.00 L 0.00,320.00 C 0.00,328.488 3.368,336.624 9.372,342.628 L 137.376,470.628 C 143.376,476.628 151.516,480.00 160.00,480.00 L 352.00,480.00 Z M 385.94,161.94 L 323.884,224.00 L 385.94,286.064 C 395.32,295.44 400.008,307.736 400.00,320.024 C 400.00,332.30 395.312,344.576 385.94,353.944 C 376.564,363.32 364.264,368.008 351.98,368.004 C 339.704,368.00 327.424,363.312 318.056,353.944 L 256.00,291.884 L 193.94,353.94 C 184.564,363.316 172.264,368.004 159.98,368.00 C 147.704,367.996 135.424,363.308 126.056,353.94 C 116.68,344.568 112.00,332.276 112.00,319.992 C 112.008,307.712 116.688,295.432 126.056,286.06 L 188.116,224.00 L 126.056,161.94 C 116.68,152.568 112.00,140.276 112.00,127.992 C 112.008,115.712 116.688,103.432 126.056,94.06 C 135.428,84.688 147.716,80.00 160.00,80.00 C 172.28,80.00 184.572,84.688 193.94,94.06 L 256.00,156.116 L 318.056,94.06 C 327.428,84.688 339.716,80.00 352.00,80.00 C 364.28,80.00 376.572,84.688 385.94,94.06 C 395.32,103.436 400.008,115.732 400.00,128.02 C 400.00,140.296 395.312,152.572 385.94,161.94 Z"  />
<glyph unicode="&#xe016;" d="M 512.00,224.00c0.00-42.736-16.64-82.916-46.868-113.136C 434.916,80.644, 394.736,64.00, 352.00,64.00L 256.00,64.00 l0.00-48.00 c0.00-6.212-3.592-11.856-9.212-14.492
		C 244.624,0.496, 242.304,0.00, 240.00,0.00c-3.672,0.00-7.312,1.264-10.244,3.712l-96.00,80.00C 130.108,86.752, 128.00,91.248, 128.00,96.00
		s 2.108,9.248, 5.756,12.288l 96.00,80.00C 232.688,190.736, 236.328,192.00, 240.00,192.00c 2.304,0.00, 4.624-0.496, 6.788-1.508C 252.408,187.856, 256.00,182.212, 256.00,176.00l0.00-48.00 
		l 96.00,0.00 c 25.64,0.00, 49.744,9.988, 67.876,28.12S 448.00,198.36, 448.00,224.00s-9.992,49.748-28.124,67.88l 45.256,45.256C 495.36,306.916, 512.00,266.736, 512.00,224.00z
		 M 160.00,320.00l 96.00,0.00 l0.00-48.00 c0.00-6.212, 3.592-11.856, 9.212-14.492C 267.384,256.496, 269.696,256.00, 272.00,256.00c 3.672,0.00, 7.312,1.264, 10.244,3.712l 96.00,80.00
		C 381.892,342.752, 384.00,347.248, 384.00,352.00s-2.108,9.248-5.756,12.288l-96.00,80.00C 279.312,446.736, 275.672,448.00, 272.00,448.00c-2.304,0.00-4.616-0.496-6.788-1.508
		C 259.592,443.856, 256.00,438.212, 256.00,432.00l0.00-48.00 L 160.00,384.00 c-42.736,0.00-82.916-16.644-113.132-46.864C 16.648,306.916,0.00,266.736,0.00,224.00s 16.648-82.916, 46.868-113.136
		L 92.124,156.12C 73.992,174.252, 64.00,198.36, 64.00,224.00s 9.992,49.748, 28.124,67.88S 134.36,320.00, 160.00,320.00z"  />
<glyph unicode="&#xe017;" d="M 224.00,464.00l0.00-192.00 c0.00-8.836-7.164-16.00-16.00-16.00L 16.00,256.00 c-8.836,0.00-16.00,7.164-16.00,16.00L0.00,464.00 c0.00,8.836, 7.164,16.00, 16.00,16.00l 192.00,0.00 C 216.836,480.00, 224.00,472.836, 224.00,464.00z M 496.00,480.00L 304.00,480.00 
		c-8.836,0.00-16.00-7.164-16.00-16.00l0.00-192.00 c0.00-8.836, 7.164-16.00, 16.00-16.00l 192.00,0.00 c 8.836,0.00, 16.00,7.164, 16.00,16.00L 512.00,464.00 C 512.00,472.836, 504.836,480.00, 496.00,480.00z M 208.00,192.00L 16.00,192.00 c-8.836,0.00-16.00-7.164-16.00-16.00
		l0.00-192.00 c0.00-8.836, 7.164-16.00, 16.00-16.00l 192.00,0.00 c 8.836,0.00, 16.00,7.164, 16.00,16.00L 224.00,176.00 C 224.00,184.836, 216.836,192.00, 208.00,192.00z M 496.00,192.00L 304.00,192.00 c-8.836,0.00-16.00-7.164-16.00-16.00l0.00-192.00 
		c0.00-8.836, 7.164-16.00, 16.00-16.00l 192.00,0.00 c 8.836,0.00, 16.00,7.164, 16.00,16.00L 512.00,176.00 C 512.00,184.836, 504.836,192.00, 496.00,192.00z"  />
<glyph unicode="&#xe018;" d="M 256.00,480.00C 114.612,480.00,0.00,365.384,0.00,224.00s 114.612-256.00, 256.00-256.00s 256.00,114.616, 256.00,256.00S 397.388,480.00, 256.00,480.00z M 304.00,224.00l 64.00-64.00L 320.00,112.00L 256.00,176.00L 192.00,112.00L 144.00,160.00l 64.00,64.00
		L 144.00,288.00l 48.00,48.00l 64.00-64.00l 64.00,64.00l 48.00-48.00L 304.00,224.00z"  />
<glyph unicode="&#xe019;" d="M 256.00,480.00 C 397.388,480.00 512.00,365.384 512.00,224.00 C 512.00,82.616 397.388-32.00 256.00-32.00 C 114.612-32.00 0.00,82.616 0.00,224.00 C 0.00,365.384 114.612,480.00 256.00,480.00 Z M 385.94,161.94 L 323.884,224.00 L 385.94,286.064 C 395.32,295.44 400.008,307.736 400.00,320.024 C 399.996,332.30 395.312,344.576 385.94,353.944 C 376.564,363.32 364.264,368.008 351.98,368.004 C 339.704,368.00 327.424,363.312 318.056,353.944 L 256.00,291.884 L 193.94,353.94 C 184.564,363.316 172.264,368.004 159.98,368.00 C 147.704,367.996 135.424,363.308 126.056,353.94 C 116.68,344.568 111.996,332.276 112.00,319.992 C 112.008,307.712 116.688,295.432 126.056,286.06 L 188.116,224.00 L 126.056,161.94 C 116.68,152.568 111.996,140.276 112.00,127.992 C 112.008,115.712 116.688,103.432 126.056,94.06 C 135.428,84.688 147.716,80.00 160.00,80.00 C 172.284,80.00 184.572,84.688 193.94,94.06 L 256.00,156.116 L 318.056,94.06 C 327.428,84.688 339.716,80.00 352.00,80.00 C 364.284,80.00 376.572,84.688 385.94,94.06 C 395.32,103.436 400.008,115.732 400.00,128.02 C 399.996,140.296 395.312,152.572 385.94,161.94 Z"  />
<glyph unicode="&#xe01a;" d="M 134.556,252.868 C 104.976,292.664 69.788,320.00 0.00,320.00 L 0.00,384.00 C 85.796,384.00 135.616,350.756 171.648,308.852 C 158.752,291.524 147.784,274.008 137.728,257.924 C 136.656,256.212 135.604,254.532 134.556,252.868 ZM 384.00,320.00 C 289.736,320.00 258.584,270.152 219.132,207.04 C 177.236,139.992 129.736,64.00 0.00,64.00 L 0.00,128.00 C 94.264,128.00 125.42,177.848 164.868,240.96 C 206.772,308.008 254.264,384.00 384.00,384.00 L 384.00,432.00 C 384.00,438.208 387.592,443.856 393.212,446.488 C 395.384,447.504 397.696,448.00 400.00,448.00 C 403.672,448.00 407.312,446.736 410.244,444.292 L 506.244,364.292 C 509.892,361.248 512.00,356.752 512.00,352.00 C 512.00,347.248 509.892,342.752 506.244,339.708 L 410.244,259.708 C 407.312,257.264 403.672,256.00 400.00,256.00 C 397.696,256.00 395.384,256.496 393.212,257.512 C 387.592,260.144 384.00,265.792 384.00,272.00 L 384.00,320.00 ZM 410.244,188.292 L 506.244,108.292 C 509.892,105.248 512.00,100.752 512.00,96.00 C 512.00,91.248 509.892,86.752 506.244,83.708 L 410.244,3.708 C 407.312,1.264 403.672,0.00 400.00,0.00 C 397.696,0.00 395.384,0.496 393.212,1.512 C 387.592,4.144 384.00,9.792 384.00,16.00 L 384.00,64.00 C 298.204,64.00 248.384,97.244 212.352,139.148 C 225.248,156.476 236.216,173.992 246.272,190.076 C 247.344,191.788 248.396,193.468 249.444,195.132 C 279.024,155.336 314.212,128.00 384.00,128.00 L 384.00,176.00 C 384.00,182.208 387.592,187.856 393.212,190.488 C 395.384,191.504 397.696,192.00 400.00,192.00 C 403.672,192.00 407.312,190.736 410.244,188.292 Z"  />
<glyph unicode="&#xe01b;" d="M 502.624,246.624 C 515.124,234.132 515.124,213.872 502.624,201.372 L 278.632-22.628 C 272.508-28.752 264.328-32.00 255.992-32.00 C 251.872-32.00 247.716-31.204 243.756-29.564 C 231.796-24.608 224.00-12.94 224.00,0.00 L 224.00,96.00 L 32.00,96.00 C 14.328,96.00 0.00,110.328 0.00,128.00 L 0.00,320.00 C 0.00,337.672 14.328,352.00 32.00,352.00 L 224.00,352.00 L 224.00,448.00 C 224.00,460.944 231.796,472.608 243.756,477.564 C 247.72,479.204 251.876,480.00 255.992,480.00 C 264.32,480.00 272.508,476.752 278.632,470.624 L 502.624,246.624 Z"  />
<glyph unicode="&#xe01c;" d="M 480.00-32.00L 32.00-32.00 c-17.672,0.00-32.00,14.328-32.00,32.00L0.00,448.00 c0.00,17.672, 14.328,32.00, 32.00,32.00l 448.00,0.00 c 17.672,0.00, 32.00-14.328, 32.00-32.00l0.00-448.00 C 512.00-17.672, 497.672-32.00, 480.00-32.00z
		 M 368.00,288.00L 320.00,336.00L 256.00,272.00L 192.00,336.00L 144.00,288.00l 64.00-64.00L 144.00,160.00l 48.00-48.00l 64.00,64.00l 64.00-64.00l 48.00,48.00L 304.00,224.00L 368.00,288.00z"  />
<glyph unicode="&#xe01d;" d="M 480.00-32.00L 32.00-32.00 c-17.672,0.00-32.00,14.328-32.00,32.00L0.00,448.00 c0.00,17.672, 14.328,32.00, 32.00,32.00l 448.00,0.00 c 17.672,0.00, 32.00-14.328, 32.00-32.00l0.00-448.00 C 512.00-17.672, 497.672-32.00, 480.00-32.00z
		 M 323.884,224.00l 62.06,62.06c 9.38,9.38, 14.064,21.672, 14.06,33.96c-0.004,12.276-4.688,24.556-14.06,33.92
		c-9.38,9.376-21.676,14.064-33.96,14.06c-12.276-0.004-24.56-4.692-33.924-14.06L 256.00,291.884L 193.94,353.94
		c-9.38,9.376-21.676,14.064-33.96,14.06c-12.276-0.004-24.56-4.692-33.924-14.06c-9.376-9.376-14.06-21.664-14.056-33.948
		c 0.004-12.28, 4.688-24.564, 14.056-33.932L 188.116,224.00L 126.056,161.94c-9.376-9.376-14.06-21.664-14.056-33.948
		c 0.004-12.28, 4.688-24.564, 14.056-33.932C 135.428,84.688, 147.716,80.00, 160.00,80.00s 24.572,4.688, 33.94,14.06L 256.00,156.116l 62.056-62.06
		C 327.428,84.688, 339.716,80.00, 352.00,80.00s 24.572,4.688, 33.94,14.06c 9.38,9.38, 14.064,21.672, 14.06,33.96
		c-0.004,12.276-4.688,24.556-14.06,33.92L 323.884,224.00z"  />
<glyph unicode="&#xe01e;" d="M 512.00,240.008c0.00-3.676-1.256-7.316-3.704-10.248l-80.00-96.00C 425.248,130.108, 420.752,128.00, 416.00,128.00s-9.248,2.108-12.288,5.756l-80.00,96.00
		C 321.256,232.692, 320.00,236.332, 320.00,240.008c0.00,2.304, 0.50,4.616, 1.516,6.78C 324.148,252.408, 329.788,256.00, 336.00,256.00l 43.976,0.00 
		c-5.624,21.944-17.024,42.072-33.46,58.508C 322.336,338.688, 290.196,352.00, 256.00,352.00s-66.336-13.312-90.508-37.488L 120.236,359.76
		C 156.50,396.028, 204.712,416.00, 256.00,416.00s 99.508-19.972, 135.764-56.24c 28.60-28.596, 47.016-64.644, 53.54-103.76L 496.00,256.00 
		c 6.212,0.00, 11.86-3.592, 14.492-9.212C 511.508,244.624, 512.00,242.312, 512.00,240.008z M 256.00,96.00c-34.196,0.00-66.336,13.316-90.508,37.496
		c-16.436,16.432-27.844,36.56-33.46,58.504L 176.00,192.00 c 6.212,0.00, 11.86,3.592, 14.492,9.212C 191.50,203.376, 192.00,205.688, 192.00,207.992
		c 0.008,3.676-1.256,7.316-3.704,10.248l-80.00,96.00C 105.256,317.892, 100.748,320.00, 96.00,320.00c-4.744,0.00-9.252-2.108-12.288-5.756l-80.00-96.00
		C 1.256,215.308,0.00,211.668,0.00,207.992c 0.008-2.304, 0.50-4.616, 1.516-6.78C 4.148,195.592, 9.788,192.00, 16.00,192.00l 50.696,0.00 
		c 6.524-39.112, 24.936-75.16, 53.54-103.756C 156.492,51.972, 204.712,32.00, 256.00,32.00c 51.296,0.00, 99.508,19.972, 135.764,56.244L 346.508,133.492
		C 322.336,109.316, 290.196,96.00, 256.00,96.00z"  />
<glyph unicode="&#xe01f;" d="M 304.00,16.00c-12.284,0.00-24.572,4.688-33.944,14.06c-9.368,9.372-14.048,21.652-14.056,33.932c0.00,12.284, 4.68,24.576, 14.056,33.948L 396.116,224.00
		L 270.056,350.06c-9.368,9.372-14.048,21.652-14.056,33.932c0.00,12.284, 4.68,24.576, 14.056,33.948c 9.368,9.368, 21.648,14.056, 33.924,14.06
		c 12.284,0.004, 24.584-4.684, 33.96-14.06l 160.00-160.00c 9.372-9.368, 14.06-21.644, 14.06-33.92c 0.008-12.288-4.68-24.584-14.06-33.96l-160.00-160.00
		C 328.572,20.688, 316.28,16.00, 304.00,16.00z M 81.94,30.06l 160.00,160.00c 9.38,9.38, 14.068,21.672, 14.06,33.96c0.00,12.276-4.688,24.556-14.06,33.92
		l-160.00,160.00c-9.38,9.376-21.676,14.064-33.96,14.06c-12.276-0.004-24.56-4.692-33.924-14.06C 4.68,408.568,0.00,396.276,0.00,383.992
		c 0.008-12.28, 4.688-24.564, 14.056-33.932L 140.116,224.00L 14.056,97.94C 4.68,88.568,0.00,76.276,0.00,63.992c 0.008-12.28, 4.688-24.564, 14.056-33.932
		C 23.428,20.688, 35.716,16.00, 48.00,16.00C 60.28,16.00, 72.572,20.688, 81.94,30.06z"  />
<glyph unicode="&#xe020;" d="M 512.00,384.00l0.00-320.00 c0.00-17.672-14.328-32.00-32.00-32.00L 192.00,32.00 c-8.484,0.00-16.624,3.372-22.624,9.372l-160.00,160.00C 3.12,207.624-0.004,215.82,0.00,224.016
		c 0.004,8.184, 3.128,16.368, 9.376,22.612l 160.00,160.00C 175.376,412.628, 183.516,416.00, 192.00,416.00l 288.00,0.00 C 497.672,416.00, 512.00,401.672, 512.00,384.00z M 432.00,288.00L 384.00,336.00L 320.00,272.00
		L 256.00,336.00L 208.00,288.00l 64.00-64.00L 208.00,160.00l 48.00-48.00l 64.00,64.00l 64.00-64.00l 48.00,48.00L 368.00,224.00L 432.00,288.00z"  />
<glyph unicode="&#xe021;" d="M 512.00,384.00l0.00-320.00 c0.00-17.672-14.328-32.00-32.00-32.00L 192.00,32.00 c-8.484,0.00-16.624,3.372-22.624,9.372l-160.00,160.00C 3.12,207.624-0.004,215.82,0.00,224.016
		c 0.004,8.184, 3.128,16.368, 9.376,22.612l 160.00,160.00C 175.376,412.628, 183.516,416.00, 192.00,416.00l 288.00,0.00 C 497.672,416.00, 512.00,401.672, 512.00,384.00z M 365.256,224.00
		l 41.372,41.372c 6.248,6.248, 9.368,14.428, 9.372,22.612c 0.004,8.196-3.116,16.392-9.372,22.644c-6.248,6.244-14.432,9.368-22.612,9.372
		c-8.196,0.004-16.392-3.12-22.644-9.372L 320.00,269.256L 278.628,310.628c-6.248,6.244-14.432,9.368-22.612,9.372
		c-8.196,0.004-16.392-3.12-22.644-9.372C 227.124,304.384, 224.00,296.20, 224.00,288.016c-0.008-8.196, 3.116-16.392, 9.372-22.644L 274.744,224.00
		L 233.372,182.628C 227.124,176.384, 224.00,168.20, 224.00,160.016c-0.008-8.196, 3.116-16.392, 9.372-22.644C 239.62,131.124, 247.804,128.00, 256.00,128.00
		c 8.192,0.00, 16.38,3.124, 22.628,9.372L 320.00,178.744l 41.372-41.372C 367.62,131.124, 375.804,128.00, 384.00,128.00c 8.192,0.00, 16.38,3.124, 22.628,9.372
		c 6.248,6.248, 9.368,14.428, 9.372,22.612c 0.004,8.196-3.116,16.392-9.372,22.644L 365.256,224.00z"  />
<glyph unicode="&#xe022;" d="M 384.00,224.00 L 448.00,224.00 C 448.00,118.132 361.868,32.00 256.00,32.00 C 150.132,32.00 64.00,118.132 64.00,224.00 C 64.00,318.96 133.312,397.996 224.00,413.28 C 224.00,413.288 224.00,413.296 224.00,413.304 L 224.00,464.00 C 224.00,470.208 227.592,475.856 233.212,478.488 C 235.376,479.504 237.688,480.00 239.992,480.00 C 243.668,480.00 247.308,478.74 250.244,476.292 L 346.244,396.292 C 349.892,393.248 352.00,388.752 352.00,384.00 C 352.00,379.248 349.892,374.752 346.24,371.708 L 250.24,291.708 C 247.308,289.256 243.668,288.00 239.992,288.00 C 237.688,288.00 235.376,288.496 233.212,289.512 C 227.592,292.144 224.00,297.788 224.00,304.00 L 224.00,347.948 C 168.856,333.704 128.00,283.536 128.00,224.00 C 128.00,153.42 185.42,96.00 256.00,96.00 C 326.58,96.00 384.00,153.42 384.00,224.00 Z"  />
<glyph unicode="&#xe023;" d="M 448.00,256.012c0.00-8.328-3.248-16.512-9.376-22.636l-160.00-160.004C 272.616,67.368, 264.484,64.00, 256.00,64.00
		c-8.492,0.00-16.632,3.368-22.632,9.372l-160.00,160.004c-6.12,6.124-9.372,14.308-9.368,22.636c0.00,4.12, 0.796,8.276, 2.436,12.24
		C 71.392,280.204, 83.06,288.00, 96.00,288.00l 80.00,0.00 L 176.00,448.00 c0.00,17.676, 14.328,32.00, 32.00,32.00l 96.00,0.00 c 17.672,0.00, 32.00-14.324, 32.00-32.00l0.00-160.00 l 80.00,0.00 c 12.936,0.00, 24.608-7.796, 29.564-19.752
		C 447.204,264.288, 448.00,260.132, 448.00,256.012z M 448.00,32.00L 64.00,32.00 L 64.00,160.00 L0.00,160.00 l0.00-128.00 c0.00-35.344, 28.652-64.00, 64.00-64.00l 384.00,0.00 c 35.344,0.00, 64.00,28.656, 64.00,64.00L 512.00,160.00 l-64.00,0.00 L 448.00,32.00 z"  />
<glyph unicode="&#xe024;" d="M 512.00,352.00l0.00-256.00 c0.00-17.672-14.328-32.00-32.00-32.00L 160.00,64.00 c-8.484,0.00-16.624,3.372-22.624,9.372l-128.00,128.00C 3.12,207.624-0.004,215.82,0.00,224.016
		c 0.004,8.184, 3.128,16.368, 9.376,22.612l 128.00,128.00C 143.376,380.628, 151.516,384.00, 160.00,384.00l 320.00,0.00 C 497.672,384.00, 512.00,369.672, 512.00,352.00z M 416.00,272.00L 368.00,320.00L 320.00,272.00
		L 272.00,320.00L 224.00,272.00l 48.00-48.00L 224.00,176.00l 48.00-48.00l 48.00,48.00l 48.00-48.00l 48.00,48.00L 368.00,224.00L 416.00,272.00z"  />
<glyph unicode="&#xe025;" d="M 512.00,352.00l0.00-256.00 c0.00-17.672-14.328-32.00-32.00-32.00L 160.00,64.00 c-8.484,0.00-16.624,3.372-22.624,9.372l-128.00,128.00C 3.12,207.624-0.004,215.82,0.00,224.016
		c 0.004,8.184, 3.128,16.368, 9.376,22.612l 128.00,128.00C 143.376,380.628, 151.516,384.00, 160.00,384.00l 320.00,0.00 C 497.672,384.00, 512.00,369.672, 512.00,352.00z M 365.256,224.00
		l 41.372,41.372c 6.248,6.248, 9.368,14.428, 9.372,22.612c 0.004,8.196-3.116,16.392-9.372,22.644c-6.248,6.244-14.428,9.368-22.612,9.372
		c-8.196,0.004-16.392-3.12-22.644-9.372L 320.00,269.256L 278.628,310.628c-6.248,6.244-14.428,9.368-22.612,9.372
		c-8.196,0.004-16.392-3.12-22.644-9.372C 227.124,304.384, 224.00,296.20, 224.00,288.016c-0.008-8.196, 3.116-16.392, 9.372-22.644L 274.744,224.00
		L 233.372,182.628C 227.124,176.384, 224.00,168.20, 224.00,160.016c-0.008-8.196, 3.116-16.392, 9.372-22.644C 239.62,131.124, 247.808,128.00, 256.00,128.00
		s 16.38,3.124, 22.628,9.372L 320.00,178.744l 41.372-41.372C 367.62,131.124, 375.808,128.00, 384.00,128.00s 16.38,3.124, 22.628,9.372
		c 6.248,6.248, 9.368,14.428, 9.372,22.612c 0.004,8.196-3.116,16.392-9.372,22.644L 365.256,224.00z"  />
<glyph unicode="&#xe026;" d="M 256.00,480.00c 59.192,0.00, 115.292-19.984, 160.664-56.708l 36.024,36.02C 455.736,462.364, 459.828,464.00, 464.00,464.00c 1.744,0.00, 3.492-0.28, 5.196-0.868
		c 5.776-1.984, 9.92-7.084, 10.68-13.148l 16.00-128.00C 495.96,321.32, 496.00,320.66, 496.00,320.00c0.00-4.212-1.664-8.292-4.688-11.312
		C 488.296,305.668, 484.22,304.00, 480.00,304.00c-0.656,0.00-1.32,0.04-1.984,0.124l-128.00,16.00c-6.064,0.756-11.164,4.904-13.148,10.684
		C 336.28,332.508, 336.00,334.26, 336.00,336.00c0.00,4.172, 1.632,8.26, 4.688,11.312l 30.392,30.392C 338.048,402.548, 298.064,416.00, 256.00,416.00
		c-105.868,0.00-192.00-86.132-192.00-192.00s 86.132-192.00, 192.00-192.00c 51.288,0.00, 99.504,19.968, 135.764,56.232C 428.032,124.492, 448.00,172.712, 448.00,224.00l 64.00,0.00 
		c0.00-68.384-26.624-132.672-74.976-181.024S 324.384-32.00, 256.00-32.00C 114.844-32.00,0.00,82.844,0.00,224.00S 114.844,480.00, 256.00,480.00z"  />
<glyph unicode="&#xe027;" d="M 400.00-15.984c 0.008-2.072-0.392-4.156-1.22-6.14C 396.304-28.10, 390.468-32.00, 384.00-32.00L 128.00-32.00 c-6.468,0.00-12.304,3.90-14.78,9.876
		c-0.828,1.984-1.228,4.072-1.22,6.14c 0.008,4.156, 1.632,8.244, 4.688,11.296l 128.00,128.00C 247.812,126.436, 251.908,128.00, 256.00,128.00
		s 8.188-1.564, 11.312-4.688l 128.00-128.00C 398.368-7.744, 400.00-11.828, 400.00-15.984z M 480.00,416.00L 32.00,416.00 c-17.672,0.00-32.00-14.328-32.00-32.00l0.00-320.00 c0.00-17.672, 14.328-32.00, 32.00-32.00
		l 76.124,0.00 l 64.00,64.00L 64.00,96.00 L 64.00,352.00 l 384.00,0.00 l0.00-256.00 L 339.876,96.00 l 64.00-64.00L 480.00,32.00 c 17.672,0.00, 32.00,14.328, 32.00,32.00L 512.00,384.00 C 512.00,401.672, 497.672,416.00, 480.00,416.00z"  />
<glyph unicode="&#xe028;" d="M0.00,224.00C0.00,365.384, 114.608,480.00, 256.00,480.00s 256.00-114.616, 256.00-256.00s-114.608-256.00-256.00-256.00S0.00,82.616,0.00,224.00z M 352.00,224.00L 240.00,336.00L 192.00,288.00l 64.00-64.00L 192.00,160.00l 48.00-48.00
		L 352.00,224.00z"  />
<glyph unicode="&#xe029;" d="M0.00,224.00C0.00,365.384, 114.608,480.00, 256.00,480.00s 256.00-114.616, 256.00-256.00s-114.608-256.00-256.00-256.00S0.00,82.616,0.00,224.00z M 257.944,94.06l 96.00,96.00
		c 9.376,9.38, 14.064,21.672, 14.056,33.96c0.00,12.276-4.688,24.556-14.056,33.92l-96.00,96.00c-9.384,9.376-21.68,14.064-33.96,14.06
		s-24.564-4.692-33.928-14.06C 180.68,344.568, 176.00,332.276, 176.00,319.992c 0.008-12.28, 4.688-24.564, 14.056-33.932L 252.116,224.00L 190.056,161.94
		C 180.68,152.568, 176.00,140.276, 176.00,127.992c 0.008-12.28, 4.688-24.564, 14.056-33.932C 199.428,84.688, 211.72,80.00, 224.00,80.00
		S 248.572,84.688, 257.944,94.06z"  />
<glyph unicode="&#xe02a;" d="M 410.244,188.288C 407.312,190.736, 403.672,192.00, 400.00,192.00c-2.304,0.00-4.62-0.50-6.788-1.508C 387.592,187.856, 384.00,182.212, 384.00,176.00l0.00-48.00 
		c-65.16,0.00-80.664,21.316-102.12,50.82C 271.064,193.688, 259.092,210.124, 241.10,224.00c 17.992,13.876, 29.96,30.312, 40.776,45.18
		C 303.336,298.684, 318.84,320.00, 384.00,320.00l0.00-48.00 c0.00-6.212, 3.592-11.856, 9.212-14.492C 395.38,256.492, 397.696,256.00, 400.00,256.00
		c 3.672,0.00, 7.312,1.264, 10.244,3.712l 96.00,80.00C 509.892,342.752, 512.00,347.248, 512.00,352.00s-2.108,9.248-5.756,12.288l-96.00,80.00
		C 407.312,446.736, 403.672,448.00, 400.00,448.00c-2.304,0.00-4.62-0.50-6.788-1.508C 387.592,443.856, 384.00,438.212, 384.00,432.00l0.00-48.00 
		c-97.752,0.00-128.872-42.792-153.88-77.18C 208.664,277.316, 193.16,256.00, 128.00,256.00L0.00,256.00 l0.00-64.00 l 128.00,0.00 c 65.16,0.00, 80.664-21.316, 102.12-50.82
		C 255.128,106.792, 286.248,64.00, 384.00,64.00l0.00-48.00 c0.00-6.212, 3.592-11.856, 9.212-14.492C 395.38,0.492, 397.696,0.00, 400.00,0.00
		c 3.672,0.00, 7.312,1.264, 10.244,3.712l 96.00,80.00C 509.892,86.752, 512.00,91.248, 512.00,96.00s-2.108,9.248-5.756,12.288L 410.244,188.288z"  />
<glyph unicode="&#xe02b;" d="M 251.312,283.312C 254.436,280.184, 256.00,276.084, 256.00,271.988c0.00-4.088-1.564-8.18-4.688-11.30l-32.00-32.00C 216.188,225.564, 212.092,224.00, 208.00,224.00
		s-8.188,1.564-11.312,4.688L 80.00,345.376L 27.312,292.688C 24.252,289.624, 20.16,288.00, 15.996,288.00c-2.06,0.00-4.14,0.40-6.12,1.22
		C 3.90,291.696,0.00,297.532,0.00,304.00L0.00,464.00 c0.00,8.836, 7.164,16.00, 16.00,16.00l 160.00,0.00 c 6.472,0.00, 12.304-3.90, 14.78-9.876C 191.60,468.14, 192.00,466.056, 192.00,463.988
		c-0.004-4.16-1.628-8.248-4.688-11.30L 134.624,400.00L 251.312,283.312z M 512.00,224.00c0.00,141.16-114.84,256.00-256.00,256.00l0.00-64.00 c 105.868,0.00, 192.00-86.132, 192.00-192.00
		s-86.132-192.00-192.00-192.00S 64.00,118.132, 64.00,224.00L0.00,224.00 c0.00-141.16, 114.84-256.00, 256.00-256.00S 512.00,82.84, 512.00,224.00z"  />
<glyph unicode="&#xe02c;" d="M0.00,224.00C0.00,365.384, 114.608,480.00, 256.00,480.00c 141.388,0.00, 256.00-114.616, 256.00-256.00s-114.612-256.00-256.00-256.00C 114.608-32.00,0.00,82.616,0.00,224.00z M 368.00,224.00L 224.00,368.00L 176.00,320.00
		l 96.00-96.00L 176.00,128.00l 48.00-48.00L 368.00,224.00z"  />
<glyph unicode="&#xe02d;" d="M0.00,224.00C0.00,365.384, 114.608,480.00, 256.00,480.00c 141.388,0.00, 256.00-114.616, 256.00-256.00s-114.612-256.00-256.00-256.00C 114.608-32.00,0.00,82.616,0.00,224.00z M 241.94,62.06l 128.00,128.00
		c 9.38,9.38, 14.068,21.672, 14.06,33.96c0.00,12.276-4.688,24.556-14.06,33.92l-128.00,128.00c-9.38,9.376-21.676,14.064-33.96,14.06
		c-12.276-0.004-24.56-4.692-33.924-14.06C 164.68,376.568, 160.00,364.276, 160.00,351.992c 0.008-12.28, 4.688-24.564, 14.056-33.932L 268.116,224.00
		L 174.056,129.94C 164.68,120.568, 160.00,108.276, 160.00,95.992c 0.008-12.28, 4.688-24.564, 14.056-33.932C 183.428,52.688, 195.716,48.00, 208.00,48.00
		C 220.28,48.00, 232.572,52.688, 241.94,62.06z"  />
<glyph unicode="&#xe02e;" d="M 506.244,236.288 C 509.892,233.248 512.00,228.752 512.00,224.00 C 512.00,219.248 509.892,214.752 506.244,211.712 L 410.244,131.712 C 407.312,129.264 403.672,128.00 400.00,128.00 C 397.696,128.00 395.38,128.492 393.212,129.508 C 387.592,132.144 384.00,137.788 384.00,144.00 L 384.00,192.00 C 307.524,192.00 288.652,168.936 264.76,139.736 C 237.156,105.992 202.796,64.00 96.00,64.00 L 0.00,64.00 L 0.00,128.00 L 96.00,128.00 C 172.468,128.00 191.34,151.064 215.232,180.26 C 226.996,194.64 240.012,210.512 259.316,224.00 C 240.008,237.492 226.992,253.36 215.232,267.74 C 191.34,296.936 172.468,320.00 96.00,320.00 L 0.00,320.00 L 0.00,384.00 L 96.00,384.00 C 202.796,384.00 237.156,342.008 264.76,308.264 C 288.652,279.064 307.524,256.00 384.00,256.00 L 384.00,304.00 C 384.00,310.212 387.592,315.856 393.212,318.492 C 395.38,319.50 397.696,320.00 400.00,320.00 C 403.672,320.00 407.312,318.736 410.244,316.288 L 506.244,236.288 Z"  />
<glyph unicode="&#xe02f;" d="M 480.00-32.00L 32.00-32.00 c-17.672,0.00-32.00,14.328-32.00,32.00L0.00,448.00 c0.00,17.672, 14.328,32.00, 32.00,32.00l 224.00,0.00 l0.00-64.00 L 64.00,416.00 l0.00-384.00 l 384.00,0.00 L 448.00,224.00 l 64.00,0.00 l0.00-224.00 C 512.00-17.672, 497.672-32.00, 480.00-32.00z
		 M 432.00,345.376l 52.688-52.688c 3.056-3.06, 7.14-4.684, 11.296-4.688c 2.072,0.00, 4.156,0.40, 6.14,1.22C 508.10,291.696, 512.00,297.528, 512.00,304.00
		L 512.00,464.00 c0.00,8.836-7.164,16.00-16.00,16.00L 336.00,480.00 c-6.468,0.00-12.304-3.90-14.78-9.876C 320.40,468.144, 320.00,466.064, 320.00,464.004c0.00-4.164, 1.624-8.256, 4.688-11.316
		L 377.376,400.00L 260.688,283.312C 257.564,280.188, 256.00,276.092, 256.00,272.00s 1.564-8.188, 4.688-11.312l 32.00-32.00C 295.804,225.564, 299.90,224.00, 303.984,224.00
		c 4.10,0.00, 8.196,1.564, 11.328,4.688L 432.00,345.376z"  />
<glyph unicode="&#xe030;" d="M0.00,224.00C0.00,365.384, 114.608,480.00, 256.00,480.00c 141.388,0.00, 256.00-114.616, 256.00-256.00s-114.612-256.00-256.00-256.00C 114.608-32.00,0.00,82.616,0.00,224.00z M 128.00,256.00l0.00-64.00 l 256.00,0.00 L 384.00,256.00 L 128.00,256.00 z"  />
<glyph unicode="&#xe031;" d="M0.00,224.00C0.00,365.384, 114.608,480.00, 256.00,480.00c 141.388,0.00, 256.00-114.616, 256.00-256.00s-114.612-256.00-256.00-256.00C 114.608-32.00,0.00,82.616,0.00,224.00z M 432.00,224.00
		c0.00,26.508-21.492,48.00-48.00,48.00L 128.00,272.00 c-26.508,0.00-48.00-21.492-48.00-48.00s 21.492-48.00, 48.00-48.00l 256.00,0.00 C 410.508,176.00, 432.00,197.492, 432.00,224.00z"  />
<glyph unicode="&#xe032;" d="M 192.00,319.984c0.00-8.184-3.124-16.368-9.372-22.612C 176.38,291.124, 168.192,288.00, 160.00,288.00c-8.196,0.00-16.38,3.124-22.628,9.372L 64.00,370.744L 64.00,320.00 
		c0.00-17.672-14.328-32.00-32.00-32.00s-32.00,14.328-32.00,32.00L0.00,448.00 c0.00,17.672, 14.328,32.00, 32.00,32.00l 128.00,0.00 c 17.672,0.00, 32.00-14.328, 32.00-32.00s-14.328-32.00-32.00-32.00L 109.256,416.00 l 73.372-73.372
		C 188.884,336.376, 192.008,328.18, 192.00,319.984z M 329.376,105.376L 402.744,32.00L 352.00,32.00 c-17.672,0.00-32.00-14.328-32.00-32.00s 14.328-32.00, 32.00-32.00l 128.00,0.00 c 17.672,0.00, 32.00,14.328, 32.00,32.00
		L 512.00,128.00 c0.00,17.672-14.328,32.00-32.00,32.00s-32.00-14.328-32.00-32.00l0.00-50.744 L 374.632,150.632C 368.384,156.876, 360.196,160.00, 352.00,160.00c-8.188,0.00-16.376-3.124-22.624-9.368
		c-6.248-6.248-9.368-14.428-9.376-22.616C 320.00,119.82, 323.116,111.624, 329.376,105.376z M 137.372,150.628L 64.00,77.256L 64.00,128.00 c0.00,17.672-14.328,32.00-32.00,32.00
		s-32.00-14.328-32.00-32.00l0.00-128.00 c0.00-17.672, 14.328-32.00, 32.00-32.00l 128.00,0.00 c 17.672,0.00, 32.00,14.328, 32.00,32.00s-14.328,32.00-32.00,32.00L 109.256,32.00 l 73.372,73.372C 188.876,111.62, 192.00,119.808, 192.00,128.00
		s-3.124,16.38-9.372,22.628c-6.248,6.248-14.432,9.364-22.612,9.372C 151.82,160.004, 143.624,156.884, 137.372,150.628z M 374.624,297.376
		L 448.00,370.744L 448.00,320.00 c0.00-17.672, 14.328-32.00, 32.00-32.00s 32.00,14.328, 32.00,32.00L 512.00,448.00 c0.00,17.672-14.328,32.00-32.00,32.00L 352.00,480.00 c-17.672,0.00-32.00-14.328-32.00-32.00s 14.328-32.00, 32.00-32.00l 50.744,0.00 L 329.368,342.632
		C 323.124,336.384, 320.00,328.196, 320.00,320.00c0.00-8.188, 3.124-16.376, 9.368-22.624c 6.248-6.248, 14.428-9.368, 22.616-9.376
		C 360.18,288.00, 368.376,291.116, 374.624,297.376z"  />
<glyph unicode="&#xe033;" d="M 256.00,304.00 C 392.336,304.00 512.00,171.712 512.00,48.00 C 470.856,85.332 392.336,112.00 256.00,112.00 L 256.00,48.00 C 256.00,42.008 252.648,36.516 247.32,33.772 C 245.016,32.584 242.508,32.00 240.00,32.00 C 236.728,32.00 233.464,33.004 230.70,34.98 L 6.70,194.98 C 2.50,197.984 0.00,202.832 0.00,208.00 C 0.00,213.168 2.50,218.016 6.70,221.02 L 230.70,381.02 C 233.464,382.996 236.728,384.00 240.00,384.00 C 242.508,384.00 245.016,383.416 247.32,382.228 C 252.648,379.484 256.00,373.992 256.00,368.00 L 256.00,304.00 Z"  />
<glyph unicode="&#xe034;" d="M 480.00-32.00L 32.00-32.00 c-17.672,0.00-32.00,14.328-32.00,32.00L0.00,448.00 c0.00,17.672, 14.328,32.00, 32.00,32.00l 448.00,0.00 c 17.672,0.00, 32.00-14.328, 32.00-32.00l0.00-448.00 C 512.00-17.672, 497.672-32.00, 480.00-32.00z
		 M 128.00,256.00l0.00-64.00 l 256.00,0.00 L 384.00,256.00 L 128.00,256.00 z"  />
<glyph unicode="&#xe035;" d="M 480.00-32.00L 32.00-32.00 c-17.672,0.00-32.00,14.328-32.00,32.00L0.00,448.00 c0.00,17.672, 14.328,32.00, 32.00,32.00l 448.00,0.00 c 17.672,0.00, 32.00-14.328, 32.00-32.00l0.00-448.00 C 512.00-17.672, 497.672-32.00, 480.00-32.00z
		 M 432.00,224.00c0.00,26.508-21.492,48.00-48.00,48.00L 128.00,272.00 c-26.508,0.00-48.00-21.492-48.00-48.00s 21.492-48.00, 48.00-48.00l 256.00,0.00 C 410.508,176.00, 432.00,197.492, 432.00,224.00z"  />
<glyph unicode="&#xe036;" d="M 480.00-32.00L 32.00-32.00 c-17.672,0.00-32.00,14.328-32.00,32.00L0.00,448.00 c0.00,17.672, 14.328,32.00, 32.00,32.00l 448.00,0.00 c 17.672,0.00, 32.00-14.328, 32.00-32.00l0.00-448.00 C 512.00-17.672, 497.672-32.00, 480.00-32.00z
		 M 470.628,54.628L 397.256,128.00L 416.00,128.00 c 17.672,0.00, 32.00,14.328, 32.00,32.00s-14.328,32.00-32.00,32.00L 320.00,192.00 c-17.672,0.00-32.00-14.328-32.00-32.00l0.00-96.00 c0.00-17.672, 14.328-32.00, 32.00-32.00s 32.00,14.328, 32.00,32.00
		l0.00,18.744 l 73.372-73.372c 6.248-6.248, 14.432-9.372, 22.628-9.372c 8.192,0.00, 16.38,3.124, 22.628,9.372c 6.248,6.248, 9.372,14.428, 9.372,22.612
		C 480.008,40.18, 476.884,48.376, 470.628,54.628z M 41.376,393.376L 114.744,320.00L 96.00,320.00 c-17.672,0.00-32.00-14.328-32.00-32.00s 14.328-32.00, 32.00-32.00l 96.00,0.00 
		c 17.672,0.00, 32.00,14.328, 32.00,32.00L 224.00,384.00 c0.00,17.672-14.328,32.00-32.00,32.00s-32.00-14.328-32.00-32.00l0.00-18.744 L 86.632,438.632C 80.384,444.876, 72.196,448.00, 64.00,448.00
		c-8.188,0.00-16.376-3.124-22.624-9.368C 35.124,432.384, 32.008,424.204, 32.00,416.016C 32.00,407.82, 35.116,399.624, 41.376,393.376z M 425.372,438.628
		L 352.00,365.256L 352.00,384.00 c0.00,17.672-14.328,32.00-32.00,32.00s-32.00-14.328-32.00-32.00l0.00-96.00 c0.00-17.672, 14.328-32.00, 32.00-32.00l 96.00,0.00 c 17.672,0.00, 32.00,14.328, 32.00,32.00s-14.328,32.00-32.00,32.00l-18.744,0.00 l 73.372,73.372
		C 476.876,399.62, 480.00,407.808, 480.00,416.00s-3.124,16.38-9.372,22.628c-6.248,6.248-14.432,9.364-22.612,9.372
		C 439.82,448.004, 431.624,444.884, 425.372,438.628z M 86.624,9.376L 160.00,82.744L 160.00,64.00 c0.00-17.672, 14.328-32.00, 32.00-32.00s 32.00,14.328, 32.00,32.00L 224.00,160.00 
		c0.00,17.672-14.328,32.00-32.00,32.00L 96.00,192.00 c-17.672,0.00-32.00-14.328-32.00-32.00s 14.328-32.00, 32.00-32.00l 18.744,0.00 l-73.376-73.368C 35.124,48.384, 32.00,40.196, 32.00,32.00
		c0.00-8.188, 3.124-16.376, 9.368-22.624c 6.248-6.248, 14.428-9.368, 22.616-9.376C 72.18,0.00, 80.376,3.116, 86.624,9.376z"  />
<glyph unicode="&#xe037;" d="M 384.00,160.00l 64.00,0.00 l0.00-96.00 c0.00-17.672-14.328-32.00-32.00-32.00L 32.00,32.00 c-17.672,0.00-32.00,14.328-32.00,32.00L0.00,384.00 c0.00,17.672, 14.328,32.00, 32.00,32.00l 128.00,0.00 l0.00-64.00 L 64.00,352.00 l0.00-256.00 l 320.00,0.00 L 384.00,160.00 z M 507.312,347.312
		l-128.00,128.00C 376.248,478.376, 372.16,480.00, 368.00,480.00c-2.064,0.00-4.14-0.40-6.124-1.22C 355.90,476.304, 352.00,470.468, 352.00,464.00l0.00-64.00 c-106.04,0.00-192.00-100.288-192.00-224.00
		c 32.00,37.332, 85.96,96.00, 192.00,96.00l0.00-64.00 c0.00-6.468, 3.90-12.304, 9.876-14.78C 363.856,192.40, 365.936,192.00, 368.00,192.00c 4.16,0.00, 8.248,1.624, 11.312,4.688l 128.00,128.00
		C 513.564,330.936, 513.564,341.064, 507.312,347.312z"  />
<glyph unicode="&#xe038;" d="M0.00,224.00C0.00,365.384, 114.608,480.00, 256.00,480.00c 141.388,0.00, 256.00-114.616, 256.00-256.00s-114.612-256.00-256.00-256.00C 114.608-32.00,0.00,82.616,0.00,224.00z M 384.00,256.00L 288.00,256.00 L 288.00,352.00 L 224.00,352.00 l0.00-96.00 L 128.00,256.00 
		l0.00-64.00 l 96.00,0.00 l0.00-96.00 l 64.00,0.00 L 288.00,192.00 l 96.00,0.00 L 384.00,256.00 z"  />
<glyph unicode="&#xe039;" d="M0.00,224.00C0.00,365.384, 114.608,480.00, 256.00,480.00c 141.388,0.00, 256.00-114.616, 256.00-256.00s-114.612-256.00-256.00-256.00C 114.608-32.00,0.00,82.616,0.00,224.00z M 384.00,272.00L 304.00,272.00 L 304.00,352.00 
		c0.00,26.508-21.492,48.00-48.00,48.00s-48.00-21.492-48.00-48.00l0.00-80.00 L 128.00,272.00 c-26.508,0.00-48.00-21.492-48.00-48.00s 21.492-48.00, 48.00-48.00l 80.00,0.00 l0.00-80.00 c0.00-26.508, 21.492-48.00, 48.00-48.00
		s 48.00,21.492, 48.00,48.00L 304.00,176.00 l 80.00,0.00 c 26.508,0.00, 48.00,21.492, 48.00,48.00S 410.508,272.00, 384.00,272.00z"  />
<glyph unicode="&#xe03a;" d="M 251.312,155.312C 254.436,152.184, 256.00,148.084, 256.00,143.988c0.00-4.088-1.564-8.18-4.688-11.30L 166.624,48.00l 52.688-52.688
		c 3.056-3.056, 4.684-7.14, 4.688-11.30c 0.008-2.068-0.396-4.152-1.22-6.136C 220.304-28.10, 214.468-32.00, 208.00-32.00L 16.00-32.00 
		c-8.836,0.00-16.00,7.164-16.00,16.00L0.00,176.00 c0.00,6.468, 3.90,12.304, 9.876,14.78C 11.86,191.60, 13.936,192.00, 15.996,192.00c 4.164,0.00, 8.252-1.624, 11.316-4.688
		L 80.00,134.624l 84.688,84.688C 167.812,222.436, 171.908,224.00, 176.00,224.00s 8.188-1.564, 11.312-4.688L 251.312,155.312z M 496.00,480.00L 304.00,480.00 
		c-6.468,0.00-12.304-3.90-14.78-9.876C 288.40,468.144, 288.00,466.068, 288.00,464.008c0.00-4.164, 1.624-8.26, 4.688-11.32L 345.376,400.00L 260.688,315.312
		C 257.564,312.192, 256.00,308.10, 256.00,304.012c0.00-4.096, 1.564-8.196, 4.688-11.324l 64.00-64.00C 327.812,225.564, 331.908,224.00, 336.00,224.00s 8.188,1.564, 11.312,4.688
		L 432.00,313.376l 52.688-52.688c 3.064-3.064, 7.152-4.688, 11.32-4.688c 2.056,0.00, 4.132,0.40, 6.116,1.22C 508.10,259.696, 512.00,265.532, 512.00,272.00L 512.00,464.00 
		C 512.00,472.836, 504.836,480.00, 496.00,480.00z"  />
<glyph unicode="&#xe03b;" d="M 416.00,160.00 C 469.02,160.00 512.00,117.02 512.00,64.00 C 512.00,10.98 469.02-32.00 416.00-32.00 C 362.976-32.00 320.00,10.98 320.00,64.00 C 320.00,68.016 320.272,71.96 320.752,75.844 L 162.616,154.916 C 145.352,138.26 121.884,128.00 96.00,128.00 C 42.976,128.00 0.00,170.98 0.00,224.00 C 0.00,277.02 42.976,320.00 96.00,320.00 C 121.884,320.00 145.352,309.74 162.616,293.084 L 320.752,372.156 C 320.272,376.04 320.00,379.984 320.00,384.00 C 320.00,437.02 362.976,480.00 416.00,480.00 C 469.02,480.00 512.00,437.02 512.00,384.00 C 512.00,330.98 469.02,288.00 416.00,288.00 C 390.116,288.00 366.64,298.256 349.384,314.916 L 191.244,235.844 C 191.728,231.96 192.00,228.016 192.00,224.00 C 192.00,219.984 191.728,216.04 191.244,212.156 L 349.384,133.084 C 366.64,149.744 390.116,160.00 416.00,160.00 Z"  />
<glyph unicode="&#xe03c;" d="M 480.00,480.00L 32.00,480.00 C 14.328,480.00,0.00,465.672,0.00,448.00l0.00-448.00 c0.00-17.672, 14.328-32.00, 32.00-32.00l 448.00,0.00 c 17.672,0.00, 32.00,14.328, 32.00,32.00L 512.00,448.00 C 512.00,465.672, 497.672,480.00, 480.00,480.00z M 384.00,192.00L 288.00,192.00 l0.00-96.00 
		L 224.00,96.00 L 224.00,192.00 L 128.00,192.00 L 128.00,256.00 l 96.00,0.00 L 224.00,352.00 l 64.00,0.00 l0.00-96.00 l 96.00,0.00 L 384.00,192.00 z"  />
<glyph unicode="&#xe03d;" d="M 480.00-32.00L 32.00-32.00 c-17.672,0.00-32.00,14.328-32.00,32.00L0.00,448.00 c0.00,17.672, 14.328,32.00, 32.00,32.00l 448.00,0.00 c 17.672,0.00, 32.00-14.328, 32.00-32.00l0.00-448.00 C 512.00-17.672, 497.672-32.00, 480.00-32.00z
		 M 384.00,272.00L 304.00,272.00 L 304.00,352.00 c0.00,26.508-21.492,48.00-48.00,48.00s-48.00-21.492-48.00-48.00l0.00-80.00 L 128.00,272.00 c-26.508,0.00-48.00-21.492-48.00-48.00s 21.492-48.00, 48.00-48.00l 80.00,0.00 l0.00-80.00 c0.00-26.508, 21.492-48.00, 48.00-48.00
		s 48.00,21.492, 48.00,48.00L 304.00,176.00 l 80.00,0.00 c 26.508,0.00, 48.00,21.492, 48.00,48.00S 410.508,272.00, 384.00,272.00z"  />
<glyph unicode="&#xe03e;" d="M 512.00,448.00l0.00-448.00 c0.00-17.672-14.328-32.00-32.00-32.00L 32.00-32.00 c-17.672,0.00-32.00,14.328-32.00,32.00L0.00,448.00 c0.00,17.672, 14.328,32.00, 32.00,32.00l 448.00,0.00 C 497.672,480.00, 512.00,465.672, 512.00,448.00z
		 M 475.312,411.312l-32.00,32.00C 440.188,446.436, 436.092,448.00, 432.00,448.00s-8.188-1.564-11.312-4.688L 352.00,374.624l-36.688,36.688
		C 312.252,414.376, 308.16,416.00, 303.996,416.00c-2.06,0.00-4.136-0.40-6.12-1.22C 291.90,412.304, 288.00,406.468, 288.00,400.00l0.00-128.00 c0.00-8.836, 7.164-16.00, 16.00-16.00l 128.00,0.00 
		c 6.468,0.00, 12.304,3.90, 14.78,9.876C 447.60,267.856, 448.00,269.932, 448.00,271.992c0.00,4.164-1.624,8.26-4.688,11.32L 406.624,320.00l 68.688,68.688
		c 3.124,3.12, 4.688,7.212, 4.688,11.30C 480.00,404.084, 478.436,408.184, 475.312,411.312z M 208.00,192.00L 80.00,192.00 c-6.468,0.00-12.304-3.90-14.78-9.876
		C 64.40,180.144, 64.00,178.068, 64.00,176.008c0.00-4.164, 1.624-8.26, 4.688-11.32L 105.376,128.00L 36.688,59.312C 33.564,56.192, 32.00,52.10, 32.00,48.012
		c0.00-4.096, 1.564-8.196, 4.688-11.324l 32.00-32.00C 71.812,1.564, 75.908,0.00, 80.00,0.00s 8.188,1.564, 11.312,4.688L 160.00,73.376l 36.688-36.688
		c 3.056-3.064, 7.152-4.688, 11.32-4.688c 2.056,0.00, 4.132,0.40, 6.116,1.22C 220.10,35.696, 224.00,41.532, 224.00,48.00L 224.00,176.00 
		C 224.00,184.836, 216.836,192.00, 208.00,192.00z"  />
<glyph unicode="&#xe03f;" d="M 160.00,224.00c0.00,53.02, 42.98,96.00, 96.00,96.00s 96.00-42.98, 96.00-96.00S 309.02,128.00, 256.00,128.00S 160.00,170.98, 160.00,224.00z M 256.00,448.00C 143.352,448.00, 49.90,364.408, 34.32,256.00
		L0.00,256.00 l0.00-64.00 l 64.00,0.00 c 17.672,0.00, 32.00,14.328, 32.00,32.00c0.00,88.224, 71.776,160.00, 160.00,160.00c 17.672,0.00, 32.00,14.328, 32.00,32.00S 273.672,448.00, 256.00,448.00z M 512.00,256.00l-64.00,0.00 c-17.672,0.00-32.00-14.328-32.00-32.00
		c0.00-88.224-71.776-160.00-160.00-160.00c-17.672,0.00-32.00-14.328-32.00-32.00s 14.328-32.00, 32.00-32.00c 112.648,0.00, 206.10,83.592, 221.68,192.00L 512.00,192.00 L 512.00,256.00 z"  />
<glyph unicode="&#xe040;" d="M 16.00,224.00 C 9.428,224.00 3.524,228.02 1.116,234.132 C 0.368,236.04 0.00,238.036 0.00,240.008 C 0.00,244.356 1.78,248.608 5.084,251.696 L 245.084,475.696 C 248.156,478.568 252.08,480.00 256.00,480.00 C 259.92,480.00 263.844,478.568 266.92,475.696 L 506.92,251.696 C 510.22,248.608 512.00,244.356 512.00,240.008 C 512.00,238.036 511.64,236.04 510.884,234.132 C 508.476,228.02 502.572,224.00 496.00,224.00 L 16.00,224.00 ZM 496.00,95.992 C 504.836,95.992 512.00,88.828 512.00,79.992 L 512.00-16.00 C 512.00-24.836 504.836-32.00 496.00-32.00 L 16.008-32.00 C 7.172-32.00 0.008-24.836 0.008-16.00 L 0.008,79.992 C 0.008,88.828 7.172,95.992 16.008,95.992 L 496.00,95.992 Z"  />
<glyph unicode="&#xe041;" d="M 317.656,358.344l-24.968-24.972l 7.156-35.80c 0.608-3.06-0.608-6.196-3.124-8.032C 295.32,288.516, 293.664,288.00, 292.00,288.00
		c-1.336,0.00-2.672,0.328-3.884,1.008L 256.00,306.848l-32.112-17.84C 222.672,288.328, 221.336,288.00, 220.008,288.00c-1.664,0.00-3.328,0.516-4.724,1.54
		c-2.52,1.836-3.74,4.972-3.128,8.032l 7.164,35.80l-24.976,24.972c-2.124,2.124-2.884,5.268-1.952,8.132
		c 0.932,2.86, 3.392,4.956, 6.364,5.424l 33.824,5.34l 16.196,34.18C 250.092,414.22, 252.908,416.00, 256.00,416.00s 5.908-1.78, 7.236-4.58l 16.188-34.18
		l 33.828-5.34c 2.968-0.468, 5.428-2.568, 6.36-5.424C 320.54,363.612, 319.788,360.468, 317.656,358.344z M 511.608,366.476
		c-0.928,2.86-3.392,4.956-6.36,5.424l-33.828,5.34l-16.196,34.18C 453.908,414.22, 451.092,416.00, 448.00,416.00s-5.908-1.78-7.236-4.58
		l-16.188-34.18l-33.828-5.34c-2.968-0.468-5.428-2.568-6.36-5.424c-0.928-2.864-0.18-6.008, 1.952-8.132l 24.968-24.972l-7.156-35.80
		c-0.608-3.06, 0.608-6.196, 3.124-8.032C 408.68,288.516, 410.336,288.00, 412.00,288.00c 1.336,0.00, 2.672,0.328, 3.884,1.008l 32.116,17.84l 32.116-17.84
		C 481.328,288.328, 482.664,288.00, 484.00,288.00c 1.664,0.00, 3.32,0.516, 4.72,1.54c 2.516,1.836, 3.736,4.972, 3.124,8.032l-7.164,35.80l 24.976,24.972
		C 511.78,360.468, 512.54,363.612, 511.608,366.476z M 127.608,366.476c-0.928,2.86-3.392,4.956-6.36,5.424l-33.828,5.34l-16.192,34.18
		C 69.908,414.22, 67.092,416.00, 64.00,416.00s-5.908-1.78-7.236-4.58l-16.188-34.18l-33.828-5.34c-2.968-0.468-5.428-2.568-6.36-5.424
		c-0.928-2.864-0.18-6.008, 1.952-8.132l 24.968-24.972l-7.156-35.80c-0.608-3.06, 0.608-6.196, 3.124-8.032C 24.68,288.516, 26.336,288.00, 28.00,288.00
		c 1.336,0.00, 2.672,0.328, 3.884,1.008L 64.00,306.848l 32.116-17.84C 97.328,288.328, 98.664,288.00, 100.00,288.00c 1.664,0.00, 3.32,0.516, 4.72,1.54
		c 2.516,1.836, 3.736,4.972, 3.124,8.032l-7.164,35.80l 24.976,24.972C 127.784,360.468, 128.54,363.612, 127.608,366.476z M 512.00,224.00L0.00,224.00 l0.00-64.00 l 512.00,0.00 L 512.00,224.00 z
		 M 512.00,96.00L0.00,96.00 l0.00-64.00 l 512.00,0.00 L 512.00,96.00 z"  />
<glyph unicode="&#xe042;" d="M 436.016,380.796C 412.084,439.008, 354.844,480.008, 288.00,480.008c-88.368,0.00-160.00-71.632-160.00-160.00c0.00-96.00,0.00-224.00-128.00-192.00
		c0.00-88.368, 103.632-160.00, 192.00-160.00c 174.364,0.00, 243.156,129.976, 254.324,299.46L 512.00,320.008L 436.016,380.796z M 320.00,320.008c-17.672,0.00-32.00,14.328-32.00,32.00
		s 14.328,32.00, 32.00,32.00s 32.00-14.328, 32.00-32.00S 337.672,320.008, 320.00,320.008z"  />
<glyph unicode="&#xe043;" d="M 368.00,288.00 C 429.86,288.00 480.00,237.856 480.00,176.00 C 480.00,114.144 429.86,64.00 368.00,64.00 C 327.872,64.00 292.736,85.14 272.96,116.852 C 280.212,71.328 327.98,14.68 347.312-4.688 C 351.888-9.26 353.256-16.144 350.78-22.124 C 348.304-28.10 342.468-32.00 336.00-32.00 L 176.00-32.00 C 169.532-32.00 163.704-28.10 161.224-22.124 C 158.748-16.152 160.108-9.272 164.68-4.692 C 184.02,14.68 231.792,71.328 239.04,116.852 C 219.264,85.14 184.124,64.00 144.00,64.00 C 82.14,64.00 32.00,114.144 32.00,176.00 C 32.00,237.856 82.14,288.00 144.00,288.00 C 159.632,288.00 174.516,284.788 188.032,279.00 C 161.272,299.468 144.00,331.712 144.00,368.00 C 144.00,429.856 194.14,480.00 256.00,480.00 C 317.86,480.00 368.00,429.856 368.00,368.00 C 368.00,331.712 350.728,299.468 323.968,279.00 C 337.484,284.788 352.368,288.00 368.00,288.00 Z"  />
<glyph unicode="&#xe044;" d="M 496.00,480.00 C 504.836,480.00 512.00,472.836 512.00,464.00 L 512.00-16.00 C 512.00-24.836 504.836-32.00 496.00-32.00 L 336.00-32.00 C 327.20-32.00 320.00-24.80 320.00-16.00 L 320.00,155.128 L 24.484-29.572 C 21.892-31.188 18.944-32.00 16.00-32.00 C 13.336-32.00 10.664-31.336 8.244-29.992 C 3.156-27.172 0.00-21.816 0.00-16.00 L 0.00,464.00 C 0.00,469.816 3.156,475.172 8.244,477.992 C 10.664,479.336 13.336,480.00 16.00,480.00 C 18.944,480.00 21.892,479.188 24.484,477.572 L 320.00,292.872 L 320.00,464.00 C 320.00,472.80 327.20,480.00 336.00,480.00 L 496.00,480.00 Z"  />
<glyph unicode="&#xe045;" d="M 256.00,416.00C 114.84,416.00,0.00,301.16,0.00,160.00c0.00-38.344, 8.304-75.26, 24.684-109.736C 29.988,39.108, 41.24,32.00, 53.588,32.00l 404.816,0.00 
		c 12.356,0.00, 23.60,7.108, 28.912,18.264C 503.696,84.74, 512.00,121.656, 512.00,160.00C 512.00,301.16, 397.16,416.00, 256.00,416.00z M 392.736,274.212L 303.424,167.04
		c 2.144-14.516-2.316-29.808-13.488-40.98c-18.752-18.752-49.132-18.752-67.884,0.00s-18.752,49.132,0.00,67.884
		c 11.172,11.168, 26.468,15.632, 40.976,13.492l 107.172,89.312c 6.356,5.292, 15.704,4.876, 21.556-0.98
		C 397.608,289.916, 398.036,280.572, 392.736,274.212z"  />
<glyph unicode="&#xe046;" d="M 448.00,272.00c0.00,0.00, 44.50,15.50, 63.992,48.00c-25.484-3.50-54.664,2.664-63.992,15.992L 448.00,416.00 c0.00,17.676-14.328,32.00-32.00,32.00L 161.004,448.00 
		c0.00,0.00, 32.00,10.672, 29.00,20.00c-3.824,11.904-38.668-3.00-67.336-15.00c 7.668,8.336, 13.668,16.672, 12.668,27.00
		c-20.276-5.144-37.46-22.816-45.372-32.584c-0.108-0.024-0.224-0.032-0.328-0.052c 2.376,4.612, 8.244,16.468, 6.70,22.632
		C 83.668,463.336, 64.00,448.00, 64.00,416.00l0.00-304.00 c0.00-32.00-32.00-48.00-64.00-16.00c 16.00-48.00, 48.00-64.00, 96.00-64.00l 54.696,0.00 l-6.536-45.736c-1.248-8.748, 4.828-16.852, 13.576-18.10
		c 0.768-0.108, 1.532-0.164, 2.284-0.164c 7.832,0.00, 14.68,5.76, 15.82,13.744L 183.02,32.00l 108.488,0.00 l 12.968-51.876
		c 1.82-7.272, 8.344-12.124, 15.512-12.124c 1.284,0.00, 2.588,0.156, 3.892,0.48c 8.576,2.144, 13.784,10.832, 11.644,19.404L 324.492,32.00L 416.00,32.00 
		c 17.672,0.00, 32.00,14.328, 32.00,32.00L 448.00,224.00 c 17.332,0.00, 42.668,4.672, 64.00,32.00C 486.672,257.336, 448.00,272.00, 448.00,272.00z M 256.00,320.00c0.00,17.676, 14.328,32.00, 32.00,32.00s 32.00-14.324, 32.00-32.00
		c0.00-17.672-14.328-32.00-32.00-32.00S 256.00,302.328, 256.00,320.00z"  />
<glyph unicode="&#xe047;" d="M 255.996,480.00 C 340.00,384.00 480.00,288.00 480.00,192.00 C 480.00,128.00 452.00,64.00 368.00,64.00 C 324.524,64.00 297.944,83.304 275.116,106.904 C 286.916,63.396 329.368,13.288 347.312-4.688 C 351.888-9.26 353.256-16.144 350.78-22.124 C 348.304-28.10 342.468-32.00 336.00-32.00 L 176.00-32.00 C 169.532-32.00 163.704-28.10 161.224-22.124 C 158.748-16.152 160.108-9.272 164.68-4.692 C 182.696,13.352 225.38,63.748 237.004,107.364 C 213.436,83.556 185.568,64.00 144.00,64.00 C 60.00,64.00 32.00,128.00 32.00,192.00 C 32.00,288.00 172.00,384.00 255.996,480.00 Z"  />
<glyph unicode="&#xe048;" d="M 491.312,235.312l-240.00,240.00C 248.256,478.376, 244.164,480.00, 240.00,480.00c-2.064,0.00-4.14-0.40-6.124-1.22C 227.90,476.304, 224.00,470.468, 224.00,464.00l0.00-185.38 
		L 27.312,475.312C 24.256,478.376, 20.164,480.00, 16.00,480.00C 13.936,480.00, 11.86,479.60, 9.876,478.78C 3.90,476.304,0.00,470.468,0.00,464.00l0.00-480.00 c0.00-6.468, 3.90-12.304, 9.876-14.78
		C 11.86-31.60, 13.936-32.00, 16.00-32.00c 4.164,0.00, 8.256,1.624, 11.312,4.688L 224.00,169.38L 224.00-16.00 c0.00-6.468, 3.90-12.304, 9.876-14.78
		C 235.86-31.60, 237.936-32.00, 240.00-32.00c 4.164,0.00, 8.256,1.624, 11.312,4.688l 240.00,240.00c 3.116,3.12, 4.688,7.212, 4.688,11.30
		C 496.008,228.084, 494.436,232.184, 491.312,235.312z"  />
<glyph unicode="&#xe049;" d="M 9.492,351.992 L 502.512,351.992 C 493.48,395.56 476.16,442.452 443.316,475.304 C 440.292,478.328 436.216,479.992 432.004,479.992 C 431.152,479.992 430.292,479.92 429.44,479.78 C 424.36,478.96 419.984,475.74 417.688,471.148 C 403.896,443.568 377.148,437.78 357.14,437.78 C 325.368,437.78 290.108,452.508 267.312,475.304 C 264.188,478.428 260.092,479.992 256.00,479.992 C 251.908,479.992 247.812,478.428 244.692,475.304 C 221.896,452.508 186.628,437.78 154.864,437.78 C 134.848,437.78 108.104,443.568 94.316,471.148 C 92.008,475.74 87.644,478.96 82.564,479.78 C 81.704,479.92 80.852,479.992 80.00,479.992 C 75.788,479.992 71.712,478.328 68.688,475.304 C 35.836,442.452 18.524,395.564 9.492,351.992 Z M 4.14,319.992 L 507.852,319.992 C 511.228,294.072 512.00,271.24 512.00,255.992 C 512.00,172.18 468.244,95.796 385.468,35.084 C 324.144-9.876 263.608-30.336 261.06-31.188 C 259.42-31.736 257.716-32.008 256.004-32.008 C 254.292-32.008 252.58-31.736 250.94-31.188 C 248.392-30.336 187.852-9.876 126.54,35.084 C 43.756,95.796 0.00,172.18 0.00,255.992 C 0.00,271.244 0.772,294.072 4.14,319.992 Z"  />
<glyph unicode="&#xe04a;" d="M 5.424,311.20c 8.388,10.252, 23.508,11.768, 33.772,3.376c 72.92-59.664, 57.476-118.732, 43.852-170.848
		C 77.368,121.988, 72.00,101.452, 72.00,80.00c0.00-42.788, 42.704-58.228, 88.00-62.564L 176.00,464.00c0.00,6.908, 4.428,13.032, 10.984,15.196
		C 188.632,479.74, 190.328,480.00, 192.00,480.00c 4.972,0.00, 9.78-2.324, 12.86-6.476L 271.168,384.00l 129.664,0.00 l 66.308,89.524C 470.22,477.676, 475.028,480.00, 480.00,480.00
		c 1.676,0.00, 3.368-0.26, 5.016-0.804C 491.572,477.032, 496.00,470.908, 496.00,464.00l 16.00-464.00c0.00-17.672-14.328-32.00-32.00-32.00L 192.00-32.00 c-106.764,0.00-168.00,40.824-168.00,112.00
		c0.00,27.624, 6.70,53.252, 12.612,75.868c 12.812,49.012, 21.276,81.396-27.812,121.56C-1.456,285.82-2.968,300.936, 5.424,311.20z M 432.00,304.00
		c-17.672,0.00-32.00-14.328-32.00-32.00s 14.328-32.00, 32.00-32.00s 32.00,14.328, 32.00,32.00S 449.672,304.00, 432.00,304.00z M 240.00,304.00c-17.672,0.00-32.00-14.328-32.00-32.00s 14.328-32.00, 32.00-32.00s 32.00,14.328, 32.00,32.00
		S 257.672,304.00, 240.00,304.00z"  />
<glyph unicode="&#xe04b;" d="M 442.04,242.60 C 446.016,237.032 448.004,230.512 448.00,223.988 C 448.00,217.476 446.012,210.96 442.04,205.396 L 282.04-18.604 C 276.032-27.012 266.336-32.004 256.00-32.004 C 245.664-32.004 235.968-27.012 229.96-18.604 L 69.96,205.396 C 65.984,210.964 64.00,217.488 64.00,224.016 C 64.00,230.528 65.988,237.04 69.96,242.60 L 229.96,466.60 C 235.968,475.008 245.664,480.00 256.00,480.00 C 266.336,480.00 276.032,475.008 282.04,466.60 L 442.04,242.60 Z"  />
<glyph unicode="&#xe04c;" d="M 192.00-16.00c0.00-8.80-7.20-16.00-16.00-16.00L 16.00-32.00 c-8.80,0.00-16.00,7.20-16.00,16.00L0.00,464.00 c0.00,8.80, 7.20,16.00, 16.00,16.00l 160.00,0.00 c 8.80,0.00, 16.00-7.20, 16.00-16.00L 192.00-16.00 z M 512.00,464.00c0.00,8.80-7.20,16.00-16.00,16.00L 336.00,480.00 
		c-8.80,0.00-16.00-7.20-16.00-16.00l0.00-480.00 c0.00-8.80, 7.20-16.00, 16.00-16.00l 160.00,0.00 c 8.80,0.00, 16.00,7.20, 16.00,16.00L 512.00,464.00 z"  />
<glyph unicode="&#xe04d;" d="M 507.312,372.68 C 472.452,337.812 482.352,304.892 496.056,259.328 C 503.532,234.476 512.00,206.312 512.00,175.992 C 512.00,52.46 436.10,33.90 369.132,17.516 C 330.344,8.032 293.704-0.928 267.312-27.32 C 264.188-30.444 260.092-32.008 256.00-32.008 C 251.908-32.008 247.812-30.444 244.688-27.32 C 218.288-0.928 181.656,8.032 142.868,17.516 C 75.90,33.90 0.00,52.46 0.00,175.992 C 0.00,206.312 8.468,234.476 15.936,259.328 C 29.648,304.892 39.548,337.812 4.688,372.68 C -1.56,378.92 -1.56,389.056 4.688,395.304 L 84.688,475.304 C 87.812,478.428 91.908,479.992 96.00,479.992 C 100.092,479.992 104.188,478.428 107.312,475.304 C 132.56,450.052 155.188,437.78 176.476,437.78 C 197.416,437.78 219.088,449.704 244.688,475.304 C 247.812,478.428 251.908,479.992 256.00,479.992 C 260.092,479.992 264.188,478.428 267.312,475.304 C 292.916,449.70 314.588,437.78 335.516,437.78 C 356.812,437.78 379.44,450.056 404.688,475.304 C 407.812,478.428 411.908,479.992 416.00,479.992 C 420.092,479.992 424.188,478.428 427.312,475.304 L 507.312,395.304 C 513.56,389.056 513.56,378.924 507.312,372.68 Z"  />
<glyph unicode="&#xe04e;" d="M 448.00,336.00L 448.00,336.00L 448.00,336.00L 448.00,336.00L 448.00,336.00c0.00,58.888-25.14,111.16-64.00,144.00c0.00,0.00-48.00-64.00-128.00-64.00S 128.00,480.00, 128.00,480.00c-38.86-32.836-64.00-85.112-64.00-144.00
		c0.00-38.124, 19.788-72.764, 52.048-98.528C 83.788,208.848, 64.00,170.36, 64.00,128.00c0.00-44.18, 22.852-84.18, 57.60-113.136
		c 2.90,10.136, 14.648,28.136, 22.40,33.136c 32.00-48.00, 112.00-80.00, 112.00-80.00s 80.00,32.00, 112.00,80.00c 7.752-5.00, 19.50-23.00, 22.40-33.136
		C 425.148,43.82, 448.00,83.82, 448.00,128.00c0.00,42.36-19.788,80.848-52.048,109.472C 428.208,263.236, 448.00,297.876, 448.00,336.00z M 160.00,288.00
		c-17.672,0.00-32.00,14.328-32.00,32.00s 14.328,32.00, 32.00,32.00s 32.00-14.328, 32.00-32.00S 177.672,288.00, 160.00,288.00z M 352.00,288.00c-17.672,0.00-32.00,14.328-32.00,32.00s 14.328,32.00, 32.00,32.00s 32.00-14.328, 32.00-32.00
		S 369.672,288.00, 352.00,288.00z"  />
<glyph unicode="&#xe04f;" d="M 448.00,224.00l 64.00,0.00 l0.00-160.00 c0.00-17.672-14.328-32.00-32.00-32.00L 32.00,32.00 c-17.672,0.00-32.00,14.328-32.00,32.00L0.00,224.00 l 64.00,0.00 l0.00-32.00 l 64.00,0.00 l0.00,32.00 l 256.00,0.00 l0.00-32.00 l 64.00,0.00 L 448.00,224.00 z M 512.00,320.00l0.00-64.00 l-64.00,0.00 l0.00,32.00 L 384.00,288.00 l0.00-32.00 L 128.00,256.00 l0.00,32.00 L 64.00,288.00 l0.00-32.00 L0.00,256.00 
		L0.00,320.00 c0.00,17.672, 14.328,32.00, 32.00,32.00l 128.00,0.00 l0.00,32.00 c0.00,17.672, 14.328,32.00, 32.00,32.00l 128.00,0.00 c 17.672,0.00, 32.00-14.328, 32.00-32.00l0.00-32.00 l 128.00,0.00 C 497.672,352.00, 512.00,337.672, 512.00,320.00z M 320.00,384.00L 192.00,384.00 l0.00-32.00 l 128.00,0.00 L 320.00,384.00 z
		"  />
<glyph unicode="&#xe050;" d="M 16.00,480.00 L 16.00,480.00 C 18.444,480.00 20.90,479.436 23.156,478.312 L 503.156,238.312 C 508.58,235.60 512.00,230.064 512.00,224.00 C 512.00,217.936 508.58,212.40 503.156,209.688 L 23.156-30.312 C 20.90-31.436 18.444-32.00 16.00-32.00 C 13.08-32.00 10.156-31.20 7.584-29.608 C 2.868-26.696 0.00-21.548 0.00-16.00 L 0.00,464.00 C 0.00,469.548 2.868,474.696 7.584,477.608 C 10.156,479.20 13.08,480.00 16.00,480.00 Z"  />
<glyph unicode="&#xe051;" d="M 143.464,68.532c 45.128,25.132, 97.204,59.16, 150.676,99.452C 421.444,263.916, 512.00,361.992, 512.00,399.992
		c0.00,3.712-1.016,6.852-2.90,9.344c-3.24,4.296-9.06,6.656-17.10,6.656c-23.00,0.00-64.30-15.10-115.248-42.764
		c-32.984,26.728-74.988,42.764-120.752,42.764c-106.04,0.00-192.00-85.96-192.00-192.00c0.00-26.256, 5.348-51.236, 14.896-74.024
		C 30.032,101.024,0.00,59.868,0.00,37.992c0.00-4.056, 0.884-7.448, 2.892-10.116c 3.248-4.312, 9.104-7.884, 17.204-7.884
		c 23.908,0.00, 68.704,18.092, 123.32,48.508l0.00,0.00C 143.428,68.508, 143.444,68.52, 143.464,68.532z M 448.944,389.228
		c 4.764-6.316-9.452-26.084-36.744-53.60c-8.196,11.444-17.608,21.952-28.06,31.328C 419.864,386.836, 444.04,395.744, 448.944,389.228z
		 M 43.976,84.064c-4.916,6.516, 10.328,27.312, 39.308,56.188c 6.184-12.716, 13.708-24.64, 22.42-35.592
		C 71.688,85.976, 48.744,77.74, 43.976,84.064z M 447.428,238.00c 0.336-4.632, 0.568-9.292, 0.568-14.008c0.00-106.04-85.96-192.00-192.00-192.00
		c-23.636,0.00-46.26,4.292-67.176,12.104c 41.916,24.232, 89.056,55.52, 137.32,91.888C 372.196,170.688, 413.468,205.668, 447.428,238.00z"  />
<glyph unicode="&#xe052;" d="M 9.372,425.372C 3.116,431.624-0.008,439.82,0.00,448.016C0.00,456.20, 3.124,464.384, 9.372,470.628C 15.624,476.876, 23.812,480.00, 32.008,480.00
		c 8.188,0.00, 16.376-3.124, 22.62-9.372l 44.44-44.44C 142.416,459.884, 196.844,480.00, 256.00,480.00c 59.152,0.00, 113.58-20.116, 156.928-53.812l 44.44,44.44
		C 463.624,476.876, 471.812,480.00, 480.008,480.00c 8.188,0.00, 16.376-3.124, 22.62-9.372c 6.252-6.252, 9.38-14.448, 9.372-22.644
		c-0.004-8.184-3.124-16.368-9.372-22.612l-44.44-44.44C 491.884,337.58, 512.00,283.156, 512.00,224.00L0.00,224.00 c0.00,59.156, 20.116,113.58, 53.812,156.928
		L 9.372,425.372z M0.00,0.00c0.00-17.672, 14.328-32.00, 32.00-32.00l 448.00,0.00 c 17.672,0.00, 32.00,14.328, 32.00,32.00L 512.00,192.00 L0.00,192.00 L0.00,0.00 z M 128.00,352.00c-17.672,0.00-32.00-14.328-32.00-32.00s 14.328-32.00, 32.00-32.00
		s 32.00,14.328, 32.00,32.00S 145.672,352.00, 128.00,352.00z M 384.00,352.00c-17.672,0.00-32.00-14.328-32.00-32.00s 14.328-32.00, 32.00-32.00s 32.00,14.328, 32.00,32.00S 401.672,352.00, 384.00,352.00z"  />
<glyph unicode="&#xe053;" d="M 480.00,352.00L 352.00,352.00 l0.00,32.00 c0.00,17.672-14.328,32.00-32.00,32.00L 192.00,416.00 c-17.672,0.00-32.00-14.328-32.00-32.00l0.00-32.00 L 32.00,352.00 c-17.672,0.00-32.00-14.328-32.00-32.00l0.00-256.00 c0.00-17.672, 14.328-32.00, 32.00-32.00l 448.00,0.00 
		c 17.672,0.00, 32.00,14.328, 32.00,32.00L 512.00,320.00 C 512.00,337.672, 497.672,352.00, 480.00,352.00z M 192.00,384.00l 128.00,0.00 l0.00-32.00 L 192.00,352.00 L 192.00,384.00 z M 352.00,160.00L 288.00,160.00 l0.00-64.00 L 224.00,96.00 L 224.00,160.00 L 160.00,160.00 L 160.00,224.00 l 64.00,0.00 L 224.00,288.00 l 64.00,0.00 l0.00-64.00 l 64.00,0.00 L 352.00,160.00 z"  />
<glyph unicode="&#xe054;" d="M 96.00,336.00l0.00,16.00 c0.00,8.836, 7.164,16.00, 16.00,16.00l 128.008,0.00 l0.00,32.00 c0.00,24.948, 18.956,49.236, 43.164,55.284L 380.124,480.00l 7.756-31.048L 290.928,424.24
		c-9.904-2.476-18.92-14.028-18.92-24.24l0.00-32.00 l 128.00,0.00 c 8.832,0.00, 15.992-7.164, 15.992-16.00l0.00-16.00 L 96.00,336.00 z M 144.072-17.516c 0.788-8.216, 7.684-14.484, 15.936-14.484
		l 192.00,0.00 c 8.248,0.00, 15.14,6.268, 15.92,14.484L 400.00,304.00L 112.00,304.00 L 144.072-17.516z"  />
<glyph unicode="&#xe055;" d="M 416.00,47.992c0.00-32.00-16.00-64.00-48.00-80.00c0.00,23.592-8.728,55.868-38.952,71.204c-3.264-8.976-6.556-18.328-9.868-28.264
			c-2.18-6.532-8.288-10.936-15.18-10.936L 208.00-0.004 c-6.884,0.00-13.00,4.408-15.18,10.936c-3.308,9.936-6.60,19.288-9.868,28.264
			C 152.728,23.86, 144.00-8.416, 144.00-32.008c-32.00,16.00-48.00,48.00-48.00,80.00c0.00,31.18, 24.76,62.352, 52.344,84.36C 136.14,169.188, 128.00,206.264, 128.00,255.992
			c0.00,97.492, 61.752,183.064, 119.124,221.312C 249.812,479.092, 252.908,479.992, 256.00,479.992s 6.188-0.90, 8.876-2.688
			C 322.248,439.056, 384.00,353.484, 384.00,255.992c0.00-49.728-8.136-86.804-20.34-123.64C 391.244,110.344, 416.00,79.172, 416.00,47.992z M 256.00,239.992
			c 35.352,0.00, 64.00,28.656, 64.00,64.00s-28.648,64.00-64.00,64.00c-35.344,0.00-64.00-28.656-64.00-64.00S 220.656,239.992, 256.00,239.992z"  />
<glyph unicode="&#xe056;" d="M 397.784,408.232C 377.924,441.34, 328.892,480.00, 256.068,480.00C 183.20,480.00, 134.136,441.34, 114.26,408.232C 66.348,328.42, 32.016-31.84, 32.00-32.00
		c 37.28,0.044, 37.308,32.00, 74.636,32.00c 37.344,0.00, 37.344-32.00, 74.688-32.00c 37.348,0.00, 37.348,32.00, 74.712,32.00c0.00,0.00, 0.02,0.00, 0.032,0.00c0.00,0.00, 0.02,0.00, 0.032,0.00
		c 37.336,0.00, 37.336-32.00, 74.668-32.00c 37.32,0.00, 37.32,32.00, 74.64,32.00c 37.308,0.00, 37.336-31.956, 74.592-32.00C 479.984-31.84, 445.672,328.42, 397.784,408.232z
		 M 160.068,240.00c-17.676,0.00-32.00,14.328-32.00,32.00s 14.324,32.00, 32.00,32.00c 17.668,0.00, 32.00-14.328, 32.00-32.00S 177.736,240.00, 160.068,240.00z M 352.068,240.00c-17.676,0.00-32.00,14.328-32.00,32.00
		s 14.324,32.00, 32.00,32.00c 17.668,0.00, 32.00-14.328, 32.00-32.00S 369.736,240.00, 352.068,240.00z"  />
<glyph unicode="&#xe057;" d="M 128.00,32.00l 256.00,0.00 L 384.00,352.00 l-32.00,0.00 l0.00,32.00 c0.00,17.672-14.328,32.00-32.00,32.00L 192.00,416.00 c-17.672,0.00-32.00-14.328-32.00-32.00l0.00-32.00 l-32.00,0.00 L 128.00,32.00 z M 192.00,384.00l 128.00,0.00 l0.00-32.00 L 192.00,352.00 L 192.00,384.00 z M 96.00,32.00L 32.00,32.00 
		c-17.672,0.00-32.00,14.328-32.00,32.00L0.00,320.00 c0.00,17.672, 14.328,32.00, 32.00,32.00l 64.00,0.00 L 96.00,32.00 z M 512.00,320.00l0.00-256.00 c0.00-17.672-14.328-32.00-32.00-32.00l-64.00,0.00 L 416.00,352.00 l 64.00,0.00 C 497.672,352.00, 512.00,337.672, 512.00,320.00z"  />
<glyph unicode="&#xe058;" d="M 384.00,288.00 C 384.00,222.732 335.132,168.912 272.00,161.032 L 272.00,0.00 C 304.24-3.792 347.624-18.42 368.00-32.00 L 144.00-32.00 C 164.376-18.424 207.76-3.796 240.00,0.00 L 240.00,161.032 C 176.868,168.912 128.00,222.732 128.00,288.00 C 128.00,288.564 128.036,289.116 128.044,289.672 C 128.04,289.812 128.00,289.944 128.00,290.084 C 128.00,359.652 151.688,451.156 161.688,471.156 C 164.40,476.576 169.94,480.00 176.00,480.00 L 336.00,480.00 C 342.056,480.00 347.60,476.576 350.312,471.156 C 360.312,451.156 384.00,359.652 384.00,290.084 C 384.00,289.944 383.96,289.812 383.956,289.676 C 383.964,289.116 384.00,288.564 384.00,288.00 Z"  />
<glyph unicode="&#xe059;" d="M 504.064,221.812L 320.00,329.18L 320.00,399.992 c0.00,16.632-16.06,40.408-20.98,47.296C 283.52,468.992, 269.048,479.992, 256.00,479.992
		s-27.52-11.00-43.02-32.704C 208.056,440.40, 192.00,416.624, 192.00,399.992l0.00-70.812 L 7.936,221.812C 3.024,218.944,0.00,213.68,0.00,207.992l0.00-32.00 
		c0.00-4.928, 2.264-9.58, 6.152-12.608C 8.996,161.164, 12.468,159.992, 16.00,159.992c 1.296,0.00, 2.596,0.156, 3.884,0.476l 174.04,43.508l 13.288-132.928
		l-73.208-58.564c-3.792-3.04-6.004-7.632-6.004-12.492l0.00-16.00 c0.00-5.024, 2.356-9.752, 6.368-12.772c 2.804-2.116, 6.196-3.228, 9.632-3.228
		c 1.468,0.00, 2.948,0.204, 4.392,0.616L 256.00-0.648l 107.604-30.744c 1.444-0.416, 2.924-0.616, 4.396-0.616c 3.436,0.00, 6.828,1.108, 9.632,3.228
		c 4.012,3.024, 6.368,7.752, 6.368,12.772l0.00,16.00 c0.00,4.86-2.212,9.452-6.004,12.492l-73.208,58.564l 13.288,132.928l 174.04-43.508
		c 1.28-0.32, 2.584-0.476, 3.884-0.476c 3.532,0.00, 7.004,1.172, 9.848,3.392c 3.884,3.032, 6.152,7.68, 6.152,12.608l0.00,32.00 
		C 512.00,213.68, 508.976,218.944, 504.064,221.812z"  />
<glyph unicode="&#xe05a;" d="M 512.00,384.00l0.00-224.00 c0.00-52.932-43.068-96.00-96.00-96.00l0.00-64.00 c0.00-17.672-14.328-32.00-32.00-32.00L 128.00-32.00 c-17.672,0.00-32.00,14.328-32.00,32.00l0.00,64.00 C 43.068,64.00,0.00,107.068,0.00,160.00L0.00,384.00 
		C0.00,436.932, 43.068,480.00, 96.00,480.00l 320.00,0.00 C 468.932,480.00, 512.00,436.932, 512.00,384.00z M 368.00,128.00c 44.184,0.00, 80.00,35.816, 80.00,80.00s-35.816,80.00-80.00,80.00s-80.00-35.816-80.00-80.00
		S 323.816,128.00, 368.00,128.00z M 144.00,128.00c 44.184,0.00, 80.00,35.816, 80.00,80.00s-35.816,80.00-80.00,80.00s-80.00-35.816-80.00-80.00S 99.816,128.00, 144.00,128.00z"  />
<glyph unicode="&#xe05b;" d="M 512.00-16.00c0.00-2.744-0.704-5.484-2.108-7.944C 507.04-28.924, 501.736-32.00, 496.00-32.00L 16.00-32.00 c-5.74,0.00-11.04,3.076-13.892,8.056
		C 0.704-21.484,0.00-18.744,0.00-16.00c0.00,2.804, 0.74,5.608, 2.212,8.112L 160.00,260.356L 160.00,384.00 l 192.00,0.00 l0.00-123.644 l 157.788-268.244
		C 511.256-10.392, 512.00-13.196, 512.00-16.00z M 384.00,416.00L 384.00,464.00 c0.00,8.80-7.20,16.00-16.00,16.00L 144.00,480.00 c-8.80,0.00-16.00-7.20-16.00-16.00l0.00-48.00 L 384.00,416.00 z"  />
<glyph unicode="&#xe05c;" d="M 432.00,288.00L 384.00,288.00 l0.00,32.00 L 128.00,320.00 l0.00-336.00 c0.00-8.80, 7.20-16.00, 16.00-16.00l 224.00,0.00 c 8.796,0.00, 16.00,7.20, 16.00,16.00l0.00,80.00 l 48.00,0.00 c 26.508,0.00, 48.00,21.492, 48.00,48.00L 480.00,240.00 
			C 480.00,266.508, 458.508,288.00, 432.00,288.00z M 432.00,112.00L 384.00,112.00 L 384.00,240.00 l 48.00,0.00 L 432.00,112.00 zM 351.252,407.82 C 370.78,396.864 384.00,375.988 384.00,352.00 L 128.00,352.00 C 128.00,390.732 155.524,423.024 192.08,430.408 C 192.064,430.936 192.00,431.46 192.00,432.00 C 192.00,458.512 213.492,480.00 240.00,480.00 C 257.008,480.00 271.912,471.132 280.436,457.792 C 287.40,461.728 295.428,464.00 304.00,464.00 C 330.508,464.00 352.00,442.512 352.00,416.00 C 352.00,413.208 351.712,410.484 351.252,407.82 Z"  />
<glyph unicode="&#xe05d;" d="M 463.988,271.992l-7.308,0.00 c-1.552,6.376-3.10,12.46-4.612,18.18c-2.488,9.416-24.868,60.58-43.78,82.648
		c-25.244,29.452-73.632,43.172-152.296,43.172c-78.656,0.00-127.048-13.72-152.296-43.172c-18.916-22.072-41.296-73.236-43.78-82.648
		c-1.516-5.72-3.064-11.804-4.612-18.18l-7.30,0.00 c-39.66,0.00-47.992-21.752-47.996-40.00c-0.004-8.072, 6.008-14.876, 14.016-15.876l 28.852-3.608
		c-6.264-36.008-10.88-76.172-10.88-116.516l0.00-48.00 c0.00-8.844, 7.164-16.00, 16.00-16.00l 32.00,0.00 c 8.836,0.00, 16.00,7.156, 16.00,16.00l0.00,16.00 l 320.00,0.00 l0.00-16.00 c0.00-8.844, 7.164-16.00, 16.00-16.00l 32.00,0.00 
		c 8.836,0.00, 16.00,7.156, 16.00,16.00l0.00,48.00 c0.00,40.344-4.612,80.508-10.88,116.516l 28.864,3.608c 8.008,1.00, 14.016,7.804, 14.016,15.876
		C 511.984,250.244, 503.652,271.992, 463.988,271.992z M 95.988,111.992c-17.672,0.00-32.00,14.328-32.00,32.00s 14.328,32.00, 32.00,32.00s 32.00-14.328, 32.00-32.00
		S 113.66,111.992, 95.988,111.992z M 255.988,207.992c-82.532,0.00-141.34,11.828-176.572,25.312c 15.968,77.532, 39.772,108.428, 48.572,118.688
		c 13.716,16.00, 45.716,32.00, 128.00,32.00s 114.288-16.00, 128.00-32.00c 8.792-10.256, 32.60-41.156, 48.572-118.688C 397.332,219.82, 338.516,207.992, 255.988,207.992z
		 M 415.988,111.992c-17.672,0.00-32.00,14.328-32.00,32.00s 14.328,32.00, 32.00,32.00s 32.00-14.328, 32.00-32.00S 433.66,111.992, 415.988,111.992z"  />
<glyph unicode="&#xe05e;" d="M 432.00,384.00 C 476.184,384.00 512.00,348.184 512.00,304.00 C 512.00,259.816 476.184,224.00 432.00,224.00 C 409.908,224.00 389.908,232.952 375.432,247.432 L 232.572,104.572 C 247.048,90.088 256.00,70.088 256.00,48.00 C 256.00,3.816 220.184-32.00 176.00-32.00 C 131.816-32.00 96.00,3.816 96.00,48.00 C 96.00,54.248 96.788,60.304 98.144,66.144 C 92.304,64.788 86.248,64.00 80.00,64.00 C 35.816,64.00 0.00,99.816 0.00,144.00 C 0.00,188.184 35.816,224.00 80.00,224.00 C 102.092,224.00 122.092,215.048 136.572,200.572 L 279.428,343.428 C 264.952,357.908 256.00,377.908 256.00,400.00 C 256.00,444.184 291.816,480.00 336.00,480.00 C 380.184,480.00 416.00,444.184 416.00,400.00 C 416.00,393.752 415.212,387.692 413.856,381.856 C 419.696,383.212 425.752,384.00 432.00,384.00 Z"  />
<glyph unicode="&#xe05f;" d="M 480.00,192.00c0.00-123.712-100.288-224.00-224.00-224.00S 32.00,68.288, 32.00,192.00c0.00,33.132, 8.64,101.632, 16.98,160.00l 127.528,0.00 
		c-8.136-54.04-16.488-119.744-16.468-161.636C 160.916,138.10, 203.532,96.00, 256.00,96.00s 95.08,42.10, 95.96,94.364
		C 351.98,232.256, 343.628,297.96, 335.492,352.00l 127.524,0.00 C 471.36,293.632, 480.00,225.132, 480.00,192.00z M 330.50,384.00l 127.844,0.00 
		c-5.852,39.14-10.592,67.968-10.592,67.968C 445.752,467.984, 432.14,480.00, 416.00,480.00L 352.00,480.00 c-9.18,0.00-17.916-3.94-23.992-10.82
		c-6.072-6.884-8.90-16.04-7.756-25.148C 320.248,444.032, 324.828,419.228, 330.50,384.00z M 191.752,444.032c 1.14,9.108-1.688,18.264-7.756,25.148
		C 177.916,476.06, 169.18,480.00, 160.00,480.00L 96.00,480.00 c-16.14,0.00-29.752-12.016-31.752-28.032c0.00,0.00-4.744-28.828-10.584-67.968l 127.836,0.00 
		C 187.172,419.228, 191.752,444.032, 191.752,444.032z"  />
<glyph unicode="&#xe060;" d="M 416.00,320.00L 96.00,320.00 l0.00,16.00 c0.00,6.064, 3.42,11.60, 8.844,14.312l 26.072,13.036l 13.908,41.712C 147.00,411.592, 153.112,416.00, 160.00,416.00l 192.00,0.00 
		c 6.888,0.00, 13.00-4.408, 15.18-10.94l 13.908-41.712l 26.072-13.036C 412.58,347.60, 416.00,342.064, 416.00,336.00L 416.00,320.00 z M 128.084,288.00
		c0.00-0.704-0.04-1.408, 0.056-2.112l 32.00-240.00C 161.204,37.936, 167.98,32.00, 176.00,32.00l 160.00,0.00 c 8.02,0.00, 14.796,5.936, 15.86,13.888l 32.00,240.00
		c 0.092,0.708, 0.056,1.412, 0.056,2.112L 128.084,288.00 z"  />
<glyph unicode="&#xe061;" d="M 416.00,255.992c-11.212,0.00-21.968-1.952-31.976-5.50l-30.616,55.116l 10.124,30.384L 384.00,335.992 c 8.836,0.00, 16.00,7.164, 16.00,16.00s-7.164,16.00-16.00,16.00L 320.00,367.992 
		c-8.836,0.00-16.00-7.164-16.00-16.00s 7.164-16.00, 16.00-16.00l 9.80,0.00 l-5.332-16.00L 174.68,319.992 l 12.308,32.00L 224.00,351.992 c 8.836,0.00, 16.00,7.164, 16.00,16.00s-7.164,16.00-16.00,16.00L 176.00,383.992 
		c-6.62,0.00-12.56-4.08-14.936-10.256L 115.048,254.084c-6.156,1.244-12.528,1.908-19.048,1.908c-52.936,0.00-96.00-43.072-96.00-96.00
		c0.00-52.936, 43.064-96.00, 96.00-96.00c 52.932,0.00, 96.00,43.064, 96.00,96.00c0.00,35.084-18.928,65.82-47.10,82.564l 6.42,16.696l 126.092-111.256
		c 2.956-2.608, 6.736-4.00, 10.584-4.00l 33.36,0.00 c 7.64-45.344, 47.16-80.00, 94.64-80.00c 52.932,0.00, 96.00,43.064, 96.00,96.00C 512.00,212.92, 468.932,255.992, 416.00,255.992z
		 M 160.00,159.992c0.00-35.288-28.712-64.00-64.00-64.00s-64.00,28.712-64.00,64.00s 28.712,64.00, 64.00,64.00c 2.472,0.00, 4.904-0.172, 7.30-0.452l-22.24-57.804
		C 80.344,163.844, 80.00,161.90, 80.00,159.984c 0.008-6.428, 3.904-12.484, 10.256-14.928c 1.884-0.728, 3.828-1.072, 5.74-1.072
		c 6.428,0.00, 12.492,3.908, 14.936,10.264l 22.216,57.756C 149.372,200.384, 160.00,181.42, 160.00,159.992z M 171.532,287.992L 313.80,287.992 l-33.34-100.016
		l-109.932,97.00L 171.532,287.992z M 339.672,264.42l 16.40-29.516c-18.008-14.436-30.716-35.212-34.712-58.916l-11.164,0.00 L 339.672,264.42z
		 M 388.804,175.992l-34.70,0.00 c 3.044,11.752, 9.316,22.196, 17.856,30.32L 388.804,175.992z M 416.00,95.992c-29.756,0.00-54.76,20.436-61.896,48.00L 416.00,143.992 
		c 5.668,0.00, 10.916,3.00, 13.788,7.884c 1.468,2.508, 2.208,5.312, 2.212,8.116c0.00,2.672-0.668,5.352-2.012,7.764l-30.06,54.108
		c 5.144,1.336, 10.512,2.124, 16.072,2.124c 35.288,0.00, 64.00-28.712, 64.00-64.00S 451.288,95.992, 416.00,95.992z"  />
<glyph unicode="&#xe062;" d="M 502.616,334.568 C 508.492,331.896 511.996,326.092 512.00,320.00 C 512.00,318.02 511.632,316.008 510.852,314.06 L 478.852,234.06 C 476.364,227.832 470.372,223.996 464.00,223.996 C 462.32,223.996 460.616,224.26 458.94,224.82 L 384.00,249.80 L 384.00,48.00 C 384.00,39.164 376.836,32.00 368.00,32.00 L 144.00,32.00 C 135.164,32.00 128.00,39.164 128.00,48.00 L 128.00,249.80 L 53.06,224.82 C 51.384,224.26 49.68,223.996 48.00,223.996 C 41.628,223.996 35.636,227.832 33.148,234.06 L 1.148,314.06 C 0.368,316.008 0.00,318.02 0.00,320.00 C 0.004,326.092 3.508,331.896 9.384,334.568 L 192.00,416.00 C 192.00,380.652 220.656,352.00 256.00,352.00 C 291.344,352.00 320.00,380.652 320.00,416.00 L 502.616,334.568 Z"  />
<glyph unicode="&#xe063;" d="M 96.00,480.00L 416.00,480.00L 416.00,256.00L 96.00,256.00zM 96.00,224.00 L 416.00,224.00 L 416.00,192.008 C 416.00,174.336 401.672,160.008 384.00,160.008 L 307.712,160.008 C 312.82,112.976 320.008,44.556 320.008,31.992 C 320.00-1.504 289.50-32.00 255.992-32.00 C 222.516-31.984 192.016-1.484 192.008,31.992 C 192.008,44.556 199.192,112.976 204.296,160.008 L 128.00,160.008 C 110.328,160.008 96.00,174.336 96.00,192.008 L 96.00,224.00 Z"  />
<glyph unicode="&#xe064;" d="M 448.00,384.00L 64.00,384.00 l0.00,16.00 c0.00,6.064, 3.42,11.60, 8.844,14.312l 26.076,13.036l 13.904,41.712C 115.00,475.592, 121.112,480.00, 128.00,480.00l 256.00,0.00 
		c 6.888,0.00, 13.00-4.408, 15.18-10.94l 13.904-41.712l 26.076-13.036C 444.58,411.60, 448.00,406.064, 448.00,400.00L 448.00,384.00 z M 96.084,352.00
		c0.00-0.464-0.064-0.92-0.024-1.388l 32.00-368.00C 128.78-25.656, 135.704-32.00, 144.00-32.00l 224.00,0.00 c 8.296,0.00, 15.22,6.344, 15.936,14.612l 32.00,368.00
		c 0.04,0.464-0.024,0.92-0.024,1.388L 96.084,352.00 z"  />
<glyph unicode="&#xe065;" d="M 504.452,34.408c-58.40-36.336-117.408-66.416-248.452-66.416s-190.056,30.08-248.452,66.416
		c-6.068,3.772-8.896,11.108-6.928,17.976c 1.96,6.876, 8.24,11.608, 15.384,11.608l 480.00,0.00 c 7.14,0.00, 13.42-4.736, 15.384-11.608
		C 513.348,45.516, 510.52,38.18, 504.452,34.408z M 272.00,95.992l 176.00,0.00 c 5.548,0.00, 10.696,2.868, 13.608,7.584
		c 2.916,4.72, 3.18,10.608, 0.704,15.572l-176.00,352.00c-3.324,6.632-10.776,10.14-17.988,8.416C 261.10,477.86, 256.00,471.416, 256.00,463.992l0.00-352.00 
		C 256.00,103.156, 263.164,95.992, 272.00,95.992z M 96.00,95.992l 112.00,0.00 c 8.836,0.00, 16.00,7.164, 16.00,16.00l0.00,256.00 c0.00,7.572-5.308,14.108-12.728,15.656
		c-7.408,1.548-14.892-2.312-17.928-9.244l-112.00-256.00c-2.168-4.952-1.692-10.656, 1.264-15.172C 85.568,98.712, 90.60,95.992, 96.00,95.992z"  />
<glyph unicode="&#xe066;" d="M 128.00,0.00L0.00,0.00 L0.00,288.00 l 128.00,0.00 L 128.00,0.00 z M 480.00,272.00c-18.00,4.00-107.50,14.00-160.00,16.00c 32.00,48.00, 32.00,160.00, 32.00,160.00c0.00,16.00-14.00,32.00-32.00,32.00c-18.376,0.00-25.564-3.688-31.50-7.50
		C 272.00,416.00, 253.00,367.50, 240.00,352.00S 160.00,288.00, 160.00,288.00l0.00-256.00 c 24.50-16.00, 178.00-64.00, 256.00-64.00c 29.00,0.00, 58.40,16.668, 64.00,32.00c 9.50,26.00, 32.00,162.00, 32.00,240.00
		C 512.00,252.50, 498.00,268.00, 480.00,272.00z"  />
<glyph unicode="&#xe067;" d="M 432.00,480.00L 80.00,480.00 c-17.672,0.00-32.00-14.328-32.00-32.00l0.00-32.00 L 16.00,416.00 c-8.836,0.00-16.00-7.164-16.00-16.00l0.00-112.00 c0.00-7.248, 4.876-13.592, 11.876-15.46L 240.00,211.708L 240.00,192.00 l-8.016,0.00 
		c-7.624,0.00-14.196-5.384-15.688-12.864c-2.492-12.44-24.304-122.272-24.296-147.14c 0.008-32.888, 31.108-63.984, 63.992-63.996
		c 32.908,0.00, 64.00,31.10, 64.008,63.996c 0.008,24.872-21.836,134.704-24.328,147.144C 294.176,186.616, 287.608,192.00, 279.984,192.00L 272.00,192.00 l0.00,32.00 
		c0.00,7.248-4.876,13.592-11.88,15.46L 32.00,300.292L 32.00,384.00 l 16.00,0.00 l0.00-32.00 c0.00-17.672, 14.328-32.00, 32.00-32.00l 352.00,0.00 c 17.672,0.00, 32.00,14.328, 32.00,32.00L 464.00,448.00 C 464.00,465.672, 449.672,480.00, 432.00,480.00z"  />
<glyph unicode="&#xe068;" d="M 512.00,312.00 C 512.00,256.468 455.132,217.484 402.94,216.068 C 389.72,180.172 375.024,152.044 365.892,136.064 C 363.048,131.08 357.744,128.00 352.00,128.00 L 160.00,128.00 C 154.256,128.00 148.96,131.08 146.108,136.064 C 126.236,170.844 80.00,263.08 80.00,368.00 C 80.00,376.836 87.164,384.00 96.00,384.00 L 416.00,384.00 C 424.836,384.00 432.00,376.836 432.00,368.00 C 432.00,366.396 431.96,364.804 431.928,363.208 C 439.752,366.272 447.992,368.00 456.00,368.00 C 486.876,368.00 512.00,342.88 512.00,312.00 Z M 413.944,249.292 C 445.016,254.784 480.00,277.64 480.00,312.00 C 480.00,325.236 469.236,336.00 456.00,336.00 C 446.048,336.00 435.492,330.64 429.336,323.744 C 426.232,297.336 420.68,272.236 413.944,249.292 Z M 32.00,64.00 C 14.40,64.00 0.00,78.40 0.00,96.00 L 512.00,96.00 C 512.00,78.40 497.596,64.00 480.00,64.00 L 32.00,64.00 Z"  />
<glyph unicode="&#xe069;" d="M 96.00,287.98A160.00,160.00 180.00 1,0 416.00,287.98A160.00,160.00 180.00 1,0 96.00,287.98zM 414.392,129.588 C 375.884,91.08 325.804,68.384 272.00,64.604 L 272.00-0.02 L 368.00-0.02 C 376.836-0.02 384.00-7.18 384.00-16.016 L 384.00-16.02 L 384.00-16.02 L 384.00-32.02 L 128.00-32.02 L 128.00-16.02 L 128.00-16.02 L 128.00-16.016 C 128.00-7.18 135.164-0.02 144.00-0.02 L 240.00-0.02 L 240.00,64.604 C 186.196,68.384 136.116,91.08 97.612,129.592 L 120.236,152.216 C 156.50,115.952 204.716,95.98 256.00,95.98 C 307.284,95.98 355.50,115.952 391.764,152.216 C 428.032,188.48 448.00,236.696 448.00,287.98 C 448.00,339.264 428.032,387.48 391.764,423.748 L 380.452,435.06 L 420.688,475.292 C 423.812,478.416 427.908,479.98 432.00,479.98 C 436.092,479.98 440.188,478.416 443.312,475.292 C 446.436,472.168 448.00,468.072 448.00,463.98 C 448.00,459.888 446.436,455.792 443.312,452.668 L 425.312,434.664 C 460.692,393.948 480.00,342.448 480.00,287.98 C 480.00,228.148 456.70,171.90 414.392,129.588 Z"  />
<glyph unicode="&#xe06a;" d="M 480.00,416.00 C 497.672,416.00 512.00,401.672 512.00,384.00 L 512.00,64.00 C 512.00,46.328 497.672,32.00 480.00,32.00 L 384.00,32.00 L 384.00,96.00 C 384.00,113.672 369.672,128.00 352.00,128.00 C 334.328,128.00 320.00,113.672 320.00,96.00 L 320.00,32.00 L 192.00,32.00 L 192.00,96.00 C 192.00,113.672 177.672,128.00 160.00,128.00 C 142.328,128.00 128.00,113.672 128.00,96.00 L 128.00,32.00 L 32.00,32.00 C 14.328,32.00 0.00,46.328 0.00,64.00 L 0.00,384.00 C 0.00,401.672 14.328,416.00 32.00,416.00 L 480.00,416.00 Z"  />
<glyph unicode="&#xe06b;" d="M 502.624,406.628l-64.00,64.00C 432.38,476.876, 424.188,480.00, 416.00,480.00s-16.38-3.124-22.624-9.372l-128.00-128.00C 259.372,336.624, 256.00,328.488, 256.00,320.00l0.00-32.00 
		l-32.00,0.00 c-12.944,0.00-24.608-7.796-29.564-19.752C 192.796,264.288, 192.00,260.132, 192.00,256.008c0.00-8.328, 3.248-16.516, 9.376-22.636l 16.00-15.996L 96.00,96.00l-32.00,0.00 L0.00,16.00
		l 48.00-48.00l 80.00,64.00l0.00,32.00 l 121.376,121.376l 16.00-16.004C 271.492,163.248, 279.68,160.00, 288.008,160.00c 4.116,0.00, 8.28,0.796, 12.24,2.436
		C 312.204,167.392, 320.00,179.06, 320.00,192.00l0.00,32.00 l 32.00,0.00 c 8.484,0.00, 16.624,3.372, 22.624,9.372l 128.00,128.00c 6.244,6.248, 9.372,14.428, 9.376,22.612
		C 512.008,392.18, 508.876,400.38, 502.624,406.628z"  />
<glyph unicode="&#xe06c;" d="M 128.00,112.00L 128.00,400.00 c0.00,8.836, 7.164,16.00, 16.00,16.00l 224.00,0.00 c 8.836,0.00, 16.00-7.164, 16.00-16.00l0.00-48.004 l 48.00,0.00 c 26.508,0.00, 48.00-21.488, 48.00-48.00L 480.00,208.00 c0.00-26.508-21.492-48.00-48.00-48.00L 384.00,160.00 l0.00-48.00 
		c0.00-8.836-7.164-16.00-16.00-16.00L 144.00,96.00 C 135.164,96.00, 128.00,103.164, 128.00,112.00z M 384.00,208.00l 48.00,0.00 L 432.00,303.996 L 384.00,303.996 L 384.00,208.00 z M 32.00,32.00l 448.00,0.00 c 17.596,0.00, 32.00,14.40, 32.00,32.00L0.00,64.00 
		C0.00,46.40, 14.40,32.00, 32.00,32.00z"  />
<glyph unicode="&#xe06d;" d="M 288.00,477.928c 115.772-14.452, 207.484-106.164, 221.936-221.936L 288.00,255.992 L 288.00,477.928 z M 256.00,223.992l0.00,256.00 c-141.384,0.00-256.00-114.616-256.00-256.00
		c0.00-141.392, 114.616-256.00, 256.00-256.00s 256.00,114.608, 256.00,256.00L 256.00,223.992 z"  />
<glyph unicode="&#xe06e;" d="M 416.00,480.00L 96.00,480.00 c-17.672,0.00-32.00-14.328-32.00-32.00l0.00-32.00 L 32.00,416.00 c-17.676,0.00-32.00-14.328-32.00-32.00s 14.324-32.00, 32.00-32.00l 32.00,0.00 l0.00-96.00 L 32.00,256.00 c-17.676,0.00-32.00-14.328-32.00-32.00s 14.324-32.00, 32.00-32.00l 32.00,0.00 l0.00-96.00 L 32.00,96.00 
		c-17.676,0.00-32.00-14.328-32.00-32.00s 14.324-32.00, 32.00-32.00l 32.00,0.00 l0.00-32.00 c0.00-17.672, 14.328-32.00, 32.00-32.00l 320.00,0.00 c 17.672,0.00, 32.00,14.328, 32.00,32.00L 448.00,448.00 C 448.00,465.672, 433.672,480.00, 416.00,480.00z M 192.00,288.00
		c0.00,35.288, 28.712,64.00, 64.00,64.00s 64.00-28.712, 64.00-64.00l0.00-32.00 c0.00-35.288-28.712-64.00-64.00-64.00s-64.00,28.712-64.00,64.00L 192.00,288.00 z M 384.00,112.00c0.00-8.836-7.164-16.00-16.00-16.00L 144.00,96.00 
		c-8.836,0.00-16.00,7.164-16.00,16.00l0.00,16.00 c0.00,6.064, 3.42,11.60, 8.844,14.312C 139.592,143.688, 204.812,176.00, 256.00,176.00s 116.408-32.312, 119.156-33.688
		C 380.58,139.60, 384.00,134.064, 384.00,128.00L 384.00,112.00 z"  />
<glyph unicode="&#xe06f;" d="M 448.00,304.00c0.00-7.748-5.548-14.38-13.172-15.752c-0.952-0.168-1.90-0.248-2.836-0.248c-6.584,0.00-12.632,4.076-14.992,10.428
		C 398.592,347.98, 366.552,352.00, 335.304,352.00c-2.772,0.00-152.688,0.00-152.688,0.00l-27.30-27.312C 152.316,321.688, 148.244,320.00, 144.00,320.00L 80.00,320.00 
		c-8.836,0.00-16.00,7.164-16.00,16.00L 64.00,464.00 c0.00,8.836, 7.164,16.00, 16.00,16.00l 64.00,0.00 c 4.244,0.00, 8.312-1.688, 11.312-4.684L 182.632,448.00L 352.00,448.00 c 0.648,0.00, 1.288-0.04, 1.928-0.116
		C 389.064,443.608, 448.00,419.236, 448.00,304.00z M 304.00,320.00L 208.00,320.00 l0.00-127.12 c-1.468-13.32-16.00-146.648-16.00-208.88c0.00-8.836, 7.164-16.00, 16.00-16.00l 96.00,0.00 c 8.836,0.00, 16.00,7.164, 16.00,16.00
		c0.00,62.232-14.532,195.56-16.00,208.88L 304.00,320.00 z"  />
<glyph unicode="&#xe070;" d="M 96.00,312.00c0.00,28.212, 20.884,51.484, 48.016,55.368C 144.016,367.58, 144.00,367.788, 144.00,368.00C 144.00,429.86, 194.14,480.00, 256.00,480.00
		c 61.856,0.00, 112.00-50.14, 112.00-112.00c0.00-0.212-0.016-0.42-0.016-0.632C 395.116,363.484, 416.00,340.212, 416.00,312.00c0.00-30.924-25.08-56.00-56.00-56.00L 152.00,256.00 
		C 121.076,256.00, 96.00,281.076, 96.00,312.00z M 225.232-8.792C 229.156-22.528, 241.712-32.00, 256.00-32.00s 26.844,9.472, 30.768,23.208L 352.00,224.00L 160.00,224.00 L 225.232-8.792z"  />
<glyph unicode="&#xe071;" d="M 256.00,479.992c-141.384,0.00-256.00-114.616-256.00-256.00s 114.616-256.00, 256.00-256.00s 256.00,114.616, 256.00,256.00S 397.384,479.992, 256.00,479.992z M 480.00,223.992L 256.00,223.992 l0.00,224.00 
		C 379.516,447.992, 480.00,347.508, 480.00,223.992z"  />
<glyph unicode="&#xe072;" d="M 256.00,184.00 C 211.892,184.00 176.00,219.892 176.00,264.00 L 176.00,304.00 C 176.00,348.108 211.892,384.00 256.00,384.00 C 300.108,384.00 336.00,348.108 336.00,304.00 L 336.00,264.00 C 336.00,219.892 300.108,184.00 256.00,184.00 ZM 416.00,184.00 C 389.532,184.00 368.00,205.532 368.00,232.00 L 368.00,256.00 C 368.00,282.468 389.532,304.00 416.00,304.00 C 442.468,304.00 464.00,282.468 464.00,256.00 L 464.00,232.00 C 464.00,205.532 442.468,184.00 416.00,184.00 ZM 505.368,146.736 C 509.432,144.704 512.00,140.548 512.00,136.00 L 512.00,124.00 C 512.00,117.376 506.624,112.00 500.00,112.00 L 414.324,112.00 C 415.408,109.52 416.00,106.804 416.00,104.00 L 416.00,84.00 C 416.00,72.952 407.048,64.00 396.00,64.00 L 116.00,64.00 C 104.952,64.00 96.00,72.952 96.00,84.00 L 96.00,104.00 C 96.00,106.804 96.592,109.52 97.672,112.00 L 12.00,112.00 C 5.376,112.00 0.00,117.376 0.00,124.00 L 0.00,136.00 C 0.00,140.548 2.568,144.704 6.632,146.736 C 8.696,147.764 57.608,172.00 96.00,172.00 C 126.244,172.00 163.008,156.964 178.256,150.08 C 203.016,157.752 230.856,164.00 256.00,164.00 C 281.14,164.00 308.984,157.756 333.744,150.08 C 348.996,156.964 385.756,172.00 416.00,172.00 C 454.392,172.00 503.304,147.764 505.368,146.736 ZM 96.00,184.00 C 69.532,184.00 48.00,205.532 48.00,232.00 L 48.00,256.00 C 48.00,282.468 69.532,304.00 96.00,304.00 C 122.468,304.00 144.00,282.468 144.00,256.00 L 144.00,232.00 C 144.00,205.532 122.468,184.00 96.00,184.00 Z"  />
<glyph unicode="&#xe073;" d="M 507.944,373.32 C 510.86,361.116 512.00,348.568 512.00,336.004 C 512.00,298.336 496.416,260.764 468.284,232.644 C 423.912,188.268 367.756,188.892 318.412,218.744 C 318.412,218.744 157.256,34.744 109.256-13.252 C 97.672-24.836 81.672-32.00 64.00-32.00 C 46.328-32.00 30.328-24.836 18.744-13.256 C 7.164-1.672 0.00,14.328 0.00,32.00 C 0.00,49.672 7.164,65.672 18.744,77.256 C 66.74,125.256 250.74,286.412 250.74,286.412 C 220.888,335.756 220.264,391.912 264.64,436.284 C 292.764,464.416 330.336,480.00 368.008,480.00 C 380.568,480.00 393.116,478.86 405.32,475.944 L 324.688,395.312 C 319.816,390.444 318.608,383.004 321.688,376.844 C 330.512,359.196 343.476,341.82 358.648,326.648 C 373.82,311.476 391.196,298.512 408.844,289.688 C 415.008,286.608 422.444,287.816 427.312,292.688 L 507.944,373.32 Z"  />
<glyph unicode="&#xe074;" d="M 256.00,480.00 C 326.58,480.00 384.00,422.58 384.00,352.00 L 384.00,128.00 C 384.00,110.328 369.672,96.00 352.00,96.00 L 288.016,96.00 L 288.016,0.00 C 288.016-17.644 273.664-32.00 256.016-32.00 C 238.376-32.00 224.016-17.644 224.016,0.00 L 224.016,96.00 L 160.00,96.00 C 142.328,96.00 128.00,110.328 128.00,128.00 L 128.00,352.00 C 128.00,422.58 185.416,480.00 256.00,480.00 Z"  />
<glyph unicode="&#xe075;" d="M 512.00,223.992c0.00-141.384-114.616-256.00-256.00-256.00c-141.392,0.00-256.00,114.616-256.00,256.00c0.00,141.388, 114.608,256.00, 256.00,256.00
		C 397.384,479.992, 512.00,365.38, 512.00,223.992z M 256.00,447.992c-123.72,0.00-224.00-100.28-224.00-224.00c0.00-123.712, 100.28-224.00, 224.00-224.00c 123.712,0.00, 224.00,100.288, 224.00,224.008L 256.00,224.00 
		L 256.00,447.992 z"  />
<glyph unicode="&#xe076;" d="M 128.00,288.00L 128.00,352.00 C 128.00,422.58, 185.42,480.00, 256.00,480.00s 128.00-57.42, 128.00-128.00l0.00-64.00 c0.00-70.58-57.42-128.00-128.00-128.00S 128.00,217.42, 128.00,288.00z M 494.312,60.624
		C 488.812,63.376, 358.376,128.00, 256.00,128.00S 23.188,63.376, 17.688,60.624C 6.844,55.204,0.00,44.124,0.00,32.00l0.00-32.00 c0.00-17.672, 14.328-32.00, 32.00-32.00l 448.00,0.00 
		c 17.672,0.00, 32.00,14.328, 32.00,32.00l0.00,32.00 C 512.00,44.124, 505.156,55.204, 494.312,60.624z"  />
<glyph unicode="&#xe077;" d="M 480.00,320.00l0.00-192.00 c0.00-10.70-5.348-20.692-14.248-26.624l-192.00-128.00C 268.376-30.208, 262.188-32.00, 256.00-32.00s-12.376,1.792-17.752,5.376l-192.00,128.00
		C 37.348,107.308, 32.00,117.30, 32.00,128.00L 32.00,320.00 c0.00,10.70, 5.348,20.692, 14.248,26.624l 192.00,128.00c 10.752,7.164, 24.752,7.164, 35.50,0.00l 192.00-128.00
		C 474.652,340.692, 480.00,330.70, 480.00,320.00z M 256.00,96.00c 70.688,0.00, 128.00,57.312, 128.00,128.00S 326.688,352.00, 256.00,352.00c-70.704,0.00-128.00-57.312-128.00-128.00S 185.296,96.00, 256.00,96.00z"  />
<glyph unicode="&#xe078;" d="M 448.00,448.00l0.00-128.00 l0.00-160.00 l0.00-160.00 c0.00-17.672-14.328-32.00-32.00-32.00l-32.00,0.00 c-17.672,0.00-32.00,14.328-32.00,32.00l 16.00,160.00c0.00,0.00-64.00,48.00-64.00,112.00S 352.00,480.00, 416.00,480.00C 432.00,479.996, 448.00,464.00, 448.00,448.00z
		 M 256.00,288.00c0.00,48.00-28.00,128.00-28.00,128.00c-1.312,4.064-4.00,8.00-8.00,8.00s-7.064-3.936-8.00-8.00l-8.00-120.00c-0.624-4.936-4.00-8.00-12.00-8.00s-11.376,2.876-12.00,8.00c-0.572,7.96-12.00,128.00-12.00,128.00
		c-0.584,4.168-4.00,8.00-8.00,8.00s-7.416-3.832-8.00-8.00c0.00,0.00-11.428-120.04-12.00-128.00c-0.624-5.124-4.00-8.00-12.00-8.00s-11.376,3.064-12.00,8.00l-8.00,120.00c-0.936,4.064-4.00,8.00-8.00,8.00
		s-6.688-3.936-8.00-8.00c0.00,0.00-28.00-80.00-28.00-128.00c0.00-29.604, 35.312-66.168, 64.00-80.00l-16.00-208.00c0.00-17.672, 14.328-32.00, 32.00-32.00l 32.00,0.00 c 17.672,0.00, 32.00,14.328, 32.00,32.00l-16.00,208.00
		C 220.688,221.832, 256.00,258.396, 256.00,288.00z"  />
</font>
</defs>
</svg>
